<svg width="1170" height="162" viewBox="0 0 1170 162" fill="none" xmlns="http://www.w3.org/2000/svg">
<path d="M442.373 24.5098H447.629C447.523 26.2324 447.049 27.7617 446.205 29.0977C445.373 30.4336 444.207 31.4766 442.707 32.2266C441.218 32.9766 439.425 33.3516 437.328 33.3516C435.687 33.3516 434.216 33.0703 432.916 32.5078C431.615 31.9336 430.502 31.1133 429.576 30.0469C428.662 28.9805 427.965 27.6914 427.484 26.1797C427.004 24.668 426.763 22.9746 426.763 21.0996V19.3242C426.763 17.4492 427.009 15.7559 427.502 14.2441C428.006 12.7207 428.72 11.4258 429.646 10.3594C430.584 9.29297 431.703 8.47266 433.004 7.89844C434.304 7.32422 435.757 7.03711 437.363 7.03711C439.496 7.03711 441.295 7.42383 442.759 8.19727C444.236 8.9707 445.379 10.0371 446.187 11.3965C447.007 12.7559 447.5 14.3027 447.664 16.0371H442.39C442.332 15.0059 442.127 14.1328 441.775 13.418C441.424 12.6914 440.89 12.1465 440.175 11.7832C439.472 11.4082 438.535 11.2207 437.363 11.2207C436.484 11.2207 435.716 11.3848 435.06 11.7129C434.404 12.041 433.853 12.5391 433.408 13.207C432.963 13.875 432.629 14.7188 432.406 15.7383C432.195 16.7461 432.09 17.9297 432.09 19.2891V21.0996C432.09 22.4238 432.189 23.5898 432.388 24.5977C432.588 25.5938 432.892 26.4375 433.302 27.1289C433.724 27.8086 434.263 28.3242 434.92 28.6758C435.588 29.0156 436.39 29.1855 437.328 29.1855C438.429 29.1855 439.338 29.0098 440.052 28.6582C440.767 28.3066 441.312 27.7852 441.687 27.0938C442.074 26.4023 442.302 25.541 442.373 24.5098ZM457.199 6V33H452.119V6H457.199ZM467.806 13.9805V33H462.726V13.9805H467.806ZM462.41 9.02344C462.41 8.28516 462.667 7.67578 463.183 7.19531C463.699 6.71484 464.39 6.47461 465.257 6.47461C466.113 6.47461 466.798 6.71484 467.314 7.19531C467.841 7.67578 468.105 8.28516 468.105 9.02344C468.105 9.76172 467.841 10.3711 467.314 10.8516C466.798 11.332 466.113 11.5723 465.257 11.5723C464.39 11.5723 463.699 11.332 463.183 10.8516C462.667 10.3711 462.41 9.76172 462.41 9.02344ZM481.824 33.3516C480.347 33.3516 479.023 33.1172 477.851 32.6484C476.679 32.168 475.683 31.5059 474.863 30.6621C474.054 29.8184 473.433 28.8398 472.999 27.7266C472.566 26.6016 472.349 25.4062 472.349 24.1406V23.4375C472.349 21.9961 472.554 20.6777 472.964 19.4824C473.374 18.2871 473.96 17.25 474.722 16.3711C475.496 15.4922 476.433 14.8184 477.535 14.3496C478.636 13.8691 479.878 13.6289 481.261 13.6289C482.609 13.6289 483.804 13.8516 484.847 14.2969C485.89 14.7422 486.763 15.375 487.466 16.1953C488.181 17.0156 488.72 18 489.083 19.1484C489.447 20.2852 489.628 21.5508 489.628 22.9453V25.0547H474.511V21.6797H484.654V21.293C484.654 20.5898 484.525 19.9629 484.267 19.4121C484.021 18.8496 483.646 18.4043 483.142 18.0762C482.638 17.748 481.994 17.584 481.208 17.584C480.54 17.584 479.966 17.7305 479.486 18.0234C479.005 18.3164 478.613 18.7266 478.308 19.2539C478.015 19.7812 477.792 20.4023 477.64 21.1172C477.499 21.8203 477.429 22.5938 477.429 23.4375V24.1406C477.429 24.9023 477.535 25.6055 477.746 26.25C477.968 26.8945 478.279 27.4512 478.677 27.9199C479.087 28.3887 479.58 28.752 480.154 29.0098C480.74 29.2676 481.402 29.3965 482.14 29.3965C483.054 29.3965 483.904 29.2207 484.689 28.8691C485.486 28.5059 486.171 27.9609 486.746 27.2344L489.206 29.9062C488.808 30.4805 488.263 31.0312 487.572 31.5586C486.892 32.0859 486.072 32.5195 485.111 32.8594C484.15 33.1875 483.054 33.3516 481.824 33.3516ZM498.548 18.041V33H493.486V13.9805H498.232L498.548 18.041ZM497.81 22.8223H496.439C496.439 21.416 496.62 20.1504 496.984 19.0254C497.347 17.8887 497.857 16.9219 498.513 16.125C499.169 15.3164 499.949 14.7012 500.851 14.2793C501.765 13.8457 502.785 13.6289 503.91 13.6289C504.8 13.6289 505.615 13.7578 506.353 14.0156C507.091 14.2734 507.724 14.6836 508.251 15.2461C508.79 15.8086 509.201 16.5527 509.482 17.4785C509.775 18.4043 509.921 19.5352 509.921 20.8711V33H504.824V20.8535C504.824 20.0098 504.706 19.3535 504.472 18.8848C504.238 18.416 503.892 18.0879 503.435 17.9004C502.99 17.7012 502.439 17.6016 501.783 17.6016C501.103 17.6016 500.511 17.7363 500.007 18.0059C499.515 18.2754 499.105 18.6504 498.777 19.1309C498.46 19.5996 498.22 20.1504 498.056 20.7832C497.892 21.416 497.81 22.0957 497.81 22.8223ZM524.167 13.9805V17.5664H513.093V13.9805H524.167ZM515.835 9.28711H520.898V27.2695C520.898 27.8203 520.968 28.2422 521.109 28.5352C521.261 28.8281 521.484 29.0332 521.777 29.1504C522.07 29.2559 522.439 29.3086 522.884 29.3086C523.2 29.3086 523.482 29.2969 523.728 29.2734C523.986 29.2383 524.202 29.2031 524.378 29.168L524.396 32.8945C523.962 33.0352 523.493 33.1465 522.99 33.2285C522.486 33.3105 521.929 33.3516 521.32 33.3516C520.206 33.3516 519.234 33.1699 518.402 32.8066C517.581 32.4316 516.949 31.834 516.503 31.0137C516.058 30.1934 515.835 29.1152 515.835 27.7793V9.28711ZM536.884 33.3516C535.407 33.3516 534.083 33.1172 532.911 32.6484C531.739 32.168 530.743 31.5059 529.923 30.6621C529.114 29.8184 528.493 28.8398 528.06 27.7266C527.626 26.6016 527.409 25.4062 527.409 24.1406V23.4375C527.409 21.9961 527.614 20.6777 528.025 19.4824C528.435 18.2871 529.021 17.25 529.782 16.3711C530.556 15.4922 531.493 14.8184 532.595 14.3496C533.696 13.8691 534.939 13.6289 536.321 13.6289C537.669 13.6289 538.864 13.8516 539.907 14.2969C540.95 14.7422 541.823 15.375 542.527 16.1953C543.241 17.0156 543.78 18 544.144 19.1484C544.507 20.2852 544.689 21.5508 544.689 22.9453V25.0547H529.571V21.6797H539.714V21.293C539.714 20.5898 539.585 19.9629 539.327 19.4121C539.081 18.8496 538.706 18.4043 538.202 18.0762C537.698 17.748 537.054 17.584 536.269 17.584C535.601 17.584 535.027 17.7305 534.546 18.0234C534.066 18.3164 533.673 18.7266 533.368 19.2539C533.075 19.7812 532.853 20.4023 532.7 21.1172C532.56 21.8203 532.489 22.5938 532.489 23.4375V24.1406C532.489 24.9023 532.595 25.6055 532.806 26.25C533.029 26.8945 533.339 27.4512 533.737 27.9199C534.148 28.3887 534.64 28.752 535.214 29.0098C535.8 29.2676 536.462 29.3965 537.2 29.3965C538.114 29.3965 538.964 29.2207 539.749 28.8691C540.546 28.5059 541.232 27.9609 541.806 27.2344L544.267 29.9062C543.868 30.4805 543.323 31.0312 542.632 31.5586C541.952 32.0859 541.132 32.5195 540.171 32.8594C539.21 33.1875 538.114 33.3516 536.884 33.3516ZM558.935 27.7441C558.935 27.3809 558.829 27.0527 558.618 26.7598C558.407 26.4668 558.015 26.1973 557.441 25.9512C556.878 25.6934 556.064 25.459 554.997 25.248C554.036 25.0371 553.14 24.7734 552.308 24.457C551.487 24.1289 550.773 23.7363 550.163 23.2793C549.566 22.8223 549.097 22.2832 548.757 21.6621C548.417 21.0293 548.247 20.3086 548.247 19.5C548.247 18.7031 548.417 17.9531 548.757 17.25C549.109 16.5469 549.607 15.9258 550.251 15.3867C550.907 14.8359 551.704 14.4082 552.642 14.1035C553.591 13.7871 554.657 13.6289 555.841 13.6289C557.493 13.6289 558.911 13.8926 560.095 14.4199C561.29 14.9473 562.204 15.6738 562.837 16.5996C563.482 17.5137 563.804 18.5566 563.804 19.7285H558.741C558.741 19.2363 558.636 18.7969 558.425 18.4102C558.226 18.0117 557.909 17.7012 557.476 17.4785C557.054 17.2441 556.503 17.127 555.823 17.127C555.261 17.127 554.775 17.2266 554.364 17.4258C553.954 17.6133 553.638 17.8711 553.415 18.1992C553.204 18.5156 553.099 18.8672 553.099 19.2539C553.099 19.5469 553.157 19.8105 553.275 20.0449C553.403 20.2676 553.609 20.4727 553.89 20.6602C554.171 20.8477 554.534 21.0234 554.98 21.1875C555.437 21.3398 555.999 21.4805 556.667 21.6094C558.038 21.8906 559.263 22.2598 560.341 22.7168C561.419 23.1621 562.275 23.7715 562.907 24.5449C563.54 25.3066 563.857 26.3086 563.857 27.5508C563.857 28.3945 563.669 29.168 563.294 29.8711C562.919 30.5742 562.38 31.1895 561.677 31.7168C560.974 32.2324 560.13 32.6367 559.146 32.9297C558.173 33.2109 557.077 33.3516 555.859 33.3516C554.089 33.3516 552.589 33.0352 551.359 32.4023C550.14 31.7695 549.214 30.9668 548.581 29.9941C547.96 29.0098 547.65 28.002 547.65 26.9707H552.448C552.472 27.6621 552.648 28.2188 552.976 28.6406C553.316 29.0625 553.743 29.3672 554.259 29.5547C554.786 29.7422 555.355 29.8359 555.964 29.8359C556.62 29.8359 557.165 29.748 557.599 29.5723C558.032 29.3848 558.36 29.1387 558.583 28.834C558.817 28.5176 558.935 28.1543 558.935 27.7441ZM578.585 7.40625H588.13C590.087 7.40625 591.769 7.69922 593.175 8.28516C594.593 8.87109 595.683 9.73828 596.444 10.8867C597.206 12.0352 597.587 13.4473 597.587 15.123C597.587 16.4941 597.352 17.6719 596.884 18.6562C596.427 19.6289 595.776 20.4434 594.933 21.0996C594.101 21.7441 593.122 22.2598 591.997 22.6465L590.327 23.5254H582.03L581.995 19.4121H588.165C589.091 19.4121 589.858 19.248 590.468 18.9199C591.077 18.5918 591.534 18.1348 591.839 17.5488C592.155 16.9629 592.313 16.2832 592.313 15.5098C592.313 14.6895 592.161 13.9805 591.856 13.3828C591.552 12.7852 591.089 12.3281 590.468 12.0117C589.847 11.6953 589.067 11.5371 588.13 11.5371H583.858V33H578.585V7.40625ZM592.894 33L587.058 21.5918L592.63 21.5566L598.536 32.7539V33H592.894ZM611.165 33.3516C609.688 33.3516 608.364 33.1172 607.192 32.6484C606.02 32.168 605.024 31.5059 604.204 30.6621C603.395 29.8184 602.774 28.8398 602.341 27.7266C601.907 26.6016 601.69 25.4062 601.69 24.1406V23.4375C601.69 21.9961 601.895 20.6777 602.306 19.4824C602.716 18.2871 603.302 17.25 604.063 16.3711C604.837 15.4922 605.774 14.8184 606.876 14.3496C607.977 13.8691 609.22 13.6289 610.602 13.6289C611.95 13.6289 613.145 13.8516 614.188 14.2969C615.231 14.7422 616.104 15.375 616.807 16.1953C617.522 17.0156 618.061 18 618.425 19.1484C618.788 20.2852 618.97 21.5508 618.97 22.9453V25.0547H603.852V21.6797H613.995V21.293C613.995 20.5898 613.866 19.9629 613.608 19.4121C613.362 18.8496 612.987 18.4043 612.483 18.0762C611.979 17.748 611.335 17.584 610.55 17.584C609.882 17.584 609.307 17.7305 608.827 18.0234C608.347 18.3164 607.954 18.7266 607.649 19.2539C607.356 19.7812 607.134 20.4023 606.981 21.1172C606.841 21.8203 606.77 22.5938 606.77 23.4375V24.1406C606.77 24.9023 606.876 25.6055 607.087 26.25C607.309 26.8945 607.62 27.4512 608.018 27.9199C608.429 28.3887 608.921 28.752 609.495 29.0098C610.081 29.2676 610.743 29.3965 611.481 29.3965C612.395 29.3965 613.245 29.2207 614.03 28.8691C614.827 28.5059 615.513 27.9609 616.087 27.2344L618.548 29.9062C618.149 30.4805 617.604 31.0312 616.913 31.5586C616.233 32.0859 615.413 32.5195 614.452 32.8594C613.491 33.1875 612.395 33.3516 611.165 33.3516ZM634.973 13.9805H639.561V32.3672C639.561 34.1016 639.175 35.5723 638.401 36.7793C637.639 37.998 636.573 38.918 635.202 39.5391C633.831 40.1719 632.237 40.4883 630.421 40.4883C629.624 40.4883 628.78 40.3828 627.889 40.1719C627.011 39.9609 626.167 39.6328 625.358 39.1875C624.561 38.7422 623.893 38.1797 623.354 37.5L625.587 34.5117C626.173 35.1914 626.852 35.7188 627.626 36.0938C628.399 36.4805 629.255 36.6738 630.192 36.6738C631.106 36.6738 631.88 36.5039 632.512 36.1641C633.145 35.8359 633.632 35.3496 633.971 34.7051C634.311 34.0723 634.481 33.3047 634.481 32.4023V18.375L634.973 13.9805ZM622.177 23.7188V23.3496C622.177 21.8965 622.352 20.5781 622.704 19.3945C623.067 18.1992 623.577 17.1738 624.233 16.3184C624.901 15.4629 625.71 14.8008 626.659 14.332C627.608 13.8633 628.68 13.6289 629.876 13.6289C631.141 13.6289 632.202 13.8633 633.057 14.332C633.913 14.8008 634.616 15.4688 635.167 16.3359C635.718 17.1914 636.145 18.2051 636.45 19.377C636.766 20.5371 637.012 21.8086 637.188 23.1914V24C637.012 25.3242 636.749 26.5547 636.397 27.6914C636.046 28.8281 635.583 29.8242 635.009 30.6797C634.434 31.5234 633.72 32.1797 632.864 32.6484C632.02 33.1172 631.012 33.3516 629.841 33.3516C628.669 33.3516 627.608 33.1113 626.659 32.6309C625.721 32.1504 624.919 31.4766 624.251 30.6094C623.583 29.7422 623.067 28.7227 622.704 27.5508C622.352 26.3789 622.177 25.1016 622.177 23.7188ZM627.239 23.3496V23.7188C627.239 24.5039 627.315 25.2363 627.468 25.916C627.62 26.5957 627.854 27.1992 628.171 27.7266C628.499 28.2422 628.903 28.6465 629.384 28.9395C629.876 29.2207 630.456 29.3613 631.124 29.3613C632.05 29.3613 632.805 29.168 633.391 28.7812C633.977 28.3828 634.417 27.8379 634.71 27.1465C635.003 26.4551 635.173 25.6582 635.22 24.7559V22.4531C635.196 21.7148 635.096 21.0527 634.921 20.4668C634.745 19.8691 634.499 19.3594 634.182 18.9375C633.866 18.5156 633.456 18.1875 632.952 17.9531C632.448 17.7188 631.85 17.6016 631.159 17.6016C630.491 17.6016 629.911 17.7539 629.419 18.0586C628.938 18.3516 628.534 18.7559 628.206 19.2715C627.889 19.7871 627.649 20.3965 627.485 21.0996C627.321 21.791 627.239 22.541 627.239 23.3496ZM655.829 28.4473V13.9805H660.891V33H656.128L655.829 28.4473ZM656.391 24.5449L657.885 24.5098C657.885 25.7754 657.739 26.9531 657.446 28.043C657.153 29.1211 656.714 30.0586 656.128 30.8555C655.542 31.6406 654.803 32.2559 653.913 32.7012C653.022 33.1348 651.973 33.3516 650.766 33.3516C649.841 33.3516 648.985 33.2227 648.2 32.9648C647.426 32.6953 646.759 32.2793 646.196 31.7168C645.645 31.1426 645.212 30.4102 644.895 29.5195C644.591 28.6172 644.438 27.5332 644.438 26.2676V13.9805H649.501V26.3027C649.501 26.8652 649.565 27.3398 649.694 27.7266C649.835 28.1133 650.028 28.4297 650.274 28.6758C650.52 28.9219 650.807 29.0977 651.135 29.2031C651.475 29.3086 651.85 29.3613 652.26 29.3613C653.303 29.3613 654.124 29.1504 654.721 28.7285C655.331 28.3066 655.759 27.7324 656.005 27.0059C656.262 26.2676 656.391 25.4473 656.391 24.5449ZM671.182 6V33H666.102V6H671.182ZM686.711 28.7109V20.2383C686.711 19.6289 686.612 19.1074 686.413 18.6738C686.213 18.2285 685.903 17.8828 685.481 17.6367C685.071 17.3906 684.538 17.2676 683.881 17.2676C683.319 17.2676 682.833 17.3672 682.422 17.5664C682.012 17.7539 681.696 18.0293 681.473 18.3926C681.251 18.7441 681.139 19.1602 681.139 19.6406H676.077C676.077 18.832 676.264 18.0645 676.639 17.3379C677.014 16.6113 677.559 15.9727 678.274 15.4219C678.989 14.8594 679.838 14.4199 680.823 14.1035C681.819 13.7871 682.932 13.6289 684.163 13.6289C685.639 13.6289 686.952 13.875 688.1 14.3672C689.249 14.8594 690.151 15.5977 690.807 16.582C691.475 17.5664 691.809 18.7969 691.809 20.2734V28.4121C691.809 29.4551 691.874 30.3105 692.002 30.9785C692.131 31.6348 692.319 32.209 692.565 32.7012V33H687.45C687.204 32.4844 687.016 31.8398 686.887 31.0664C686.77 30.2812 686.711 29.4961 686.711 28.7109ZM687.379 21.416L687.415 24.2812H684.585C683.917 24.2812 683.336 24.3574 682.844 24.5098C682.352 24.6621 681.948 24.8789 681.631 25.1602C681.315 25.4297 681.081 25.7461 680.928 26.1094C680.788 26.4727 680.717 26.8711 680.717 27.3047C680.717 27.7383 680.817 28.1309 681.016 28.4824C681.215 28.8223 681.502 29.0918 681.877 29.291C682.252 29.4785 682.692 29.5723 683.196 29.5723C683.958 29.5723 684.62 29.4199 685.182 29.1152C685.745 28.8105 686.178 28.4355 686.483 27.9902C686.799 27.5449 686.963 27.123 686.975 26.7246L688.311 28.8691C688.124 29.3496 687.866 29.8477 687.538 30.3633C687.221 30.8789 686.817 31.3652 686.325 31.8223C685.833 32.2676 685.241 32.6367 684.549 32.9297C683.858 33.2109 683.038 33.3516 682.088 33.3516C680.881 33.3516 679.786 33.1113 678.801 32.6309C677.829 32.1387 677.055 31.4648 676.481 30.6094C675.919 29.7422 675.637 28.7578 675.637 27.6562C675.637 26.6602 675.825 25.7754 676.2 25.002C676.575 24.2285 677.126 23.5781 677.852 23.0508C678.59 22.5117 679.51 22.1074 680.612 21.8379C681.713 21.5566 682.991 21.416 684.444 21.416H687.379ZM701.854 18.1289V33H696.792V13.9805H701.555L701.854 18.1289ZM707.584 13.8574L707.497 18.5508C707.25 18.5156 706.952 18.4863 706.6 18.4629C706.26 18.4277 705.95 18.4102 705.668 18.4102C704.954 18.4102 704.333 18.5039 703.805 18.6914C703.29 18.8672 702.856 19.1309 702.504 19.4824C702.165 19.834 701.907 20.2617 701.731 20.7656C701.567 21.2695 701.473 21.8438 701.45 22.4883L700.43 22.1719C700.43 20.9414 700.553 19.8105 700.799 18.7793C701.045 17.7363 701.403 16.8281 701.872 16.0547C702.352 15.2812 702.938 14.6836 703.629 14.2617C704.321 13.8398 705.112 13.6289 706.002 13.6289C706.284 13.6289 706.571 13.6523 706.864 13.6992C707.157 13.7344 707.397 13.7871 707.584 13.8574ZM719.457 33.3516C717.981 33.3516 716.657 33.1172 715.485 32.6484C714.313 32.168 713.317 31.5059 712.496 30.6621C711.688 29.8184 711.067 28.8398 710.633 27.7266C710.2 26.6016 709.983 25.4062 709.983 24.1406V23.4375C709.983 21.9961 710.188 20.6777 710.598 19.4824C711.008 18.2871 711.594 17.25 712.356 16.3711C713.129 15.4922 714.067 14.8184 715.168 14.3496C716.27 13.8691 717.512 13.6289 718.895 13.6289C720.243 13.6289 721.438 13.8516 722.481 14.2969C723.524 14.7422 724.397 15.375 725.1 16.1953C725.815 17.0156 726.354 18 726.717 19.1484C727.08 20.2852 727.262 21.5508 727.262 22.9453V25.0547H712.145V21.6797H722.287V21.293C722.287 20.5898 722.159 19.9629 721.901 19.4121C721.655 18.8496 721.28 18.4043 720.776 18.0762C720.272 17.748 719.627 17.584 718.842 17.584C718.174 17.584 717.6 17.7305 717.12 18.0234C716.639 18.3164 716.246 18.7266 715.942 19.2539C715.649 19.7812 715.426 20.4023 715.274 21.1172C715.133 21.8203 715.063 22.5938 715.063 23.4375V24.1406C715.063 24.9023 715.168 25.6055 715.379 26.25C715.602 26.8945 715.912 27.4512 716.311 27.9199C716.721 28.3887 717.213 28.752 717.787 29.0098C718.373 29.2676 719.036 29.3965 719.774 29.3965C720.688 29.3965 721.537 29.2207 722.323 28.8691C723.12 28.5059 723.805 27.9609 724.379 27.2344L726.84 29.9062C726.442 30.4805 725.897 31.0312 725.205 31.5586C724.526 32.0859 723.705 32.5195 722.745 32.8594C721.784 33.1875 720.688 33.3516 719.457 33.3516ZM741.508 27.7441C741.508 27.3809 741.403 27.0527 741.192 26.7598C740.981 26.4668 740.588 26.1973 740.014 25.9512C739.451 25.6934 738.637 25.459 737.571 25.248C736.61 25.0371 735.713 24.7734 734.881 24.457C734.061 24.1289 733.346 23.7363 732.737 23.2793C732.139 22.8223 731.67 22.2832 731.33 21.6621C730.991 21.0293 730.821 20.3086 730.821 19.5C730.821 18.7031 730.991 17.9531 731.33 17.25C731.682 16.5469 732.18 15.9258 732.825 15.3867C733.481 14.8359 734.278 14.4082 735.215 14.1035C736.164 13.7871 737.231 13.6289 738.414 13.6289C740.067 13.6289 741.485 13.8926 742.668 14.4199C743.864 14.9473 744.778 15.6738 745.41 16.5996C746.055 17.5137 746.377 18.5566 746.377 19.7285H741.315C741.315 19.2363 741.209 18.7969 740.998 18.4102C740.799 18.0117 740.483 17.7012 740.049 17.4785C739.627 17.2441 739.076 17.127 738.397 17.127C737.834 17.127 737.348 17.2266 736.938 17.4258C736.528 17.6133 736.211 17.8711 735.989 18.1992C735.778 18.5156 735.672 18.8672 735.672 19.2539C735.672 19.5469 735.731 19.8105 735.848 20.0449C735.977 20.2676 736.182 20.4727 736.463 20.6602C736.744 20.8477 737.108 21.0234 737.553 21.1875C738.01 21.3398 738.573 21.4805 739.241 21.6094C740.612 21.8906 741.836 22.2598 742.914 22.7168C743.992 23.1621 744.848 23.7715 745.481 24.5449C746.114 25.3066 746.43 26.3086 746.43 27.5508C746.43 28.3945 746.242 29.168 745.867 29.8711C745.492 30.5742 744.953 31.1895 744.25 31.7168C743.547 32.2324 742.703 32.6367 741.719 32.9297C740.746 33.2109 739.651 33.3516 738.432 33.3516C736.662 33.3516 735.162 33.0352 733.932 32.4023C732.713 31.7695 731.787 30.9668 731.155 29.9941C730.534 29.0098 730.223 28.002 730.223 26.9707H735.022C735.045 27.6621 735.221 28.2188 735.549 28.6406C735.889 29.0625 736.317 29.3672 736.832 29.5547C737.36 29.7422 737.928 29.8359 738.537 29.8359C739.194 29.8359 739.739 29.748 740.172 29.5723C740.606 29.3848 740.934 29.1387 741.157 28.834C741.391 28.5176 741.508 28.1543 741.508 27.7441Z" fill="#212121"/>
<rect x="0.5" y="81.5" width="169" height="80" rx="3.5" stroke="#AFB1B8"/>
<g clip-path="url(#clip0_75273_664)">
<path fill-rule="evenodd" clip-rule="evenodd" d="M70 102.087L77.0078 108.721L64 108.713V140.901H98V128.594L105 135.221V102.087H70ZM97.6924 127.815L77.8226 109.005H97.6924V127.815ZM91.5231 136.193H69.3801V114.545H70.9453V134.727H91.5231V136.193ZM74.6089 145.186L73.791 146.871L72.9731 145.186H72.2871L73.481 147.432V148.741H74.1011V147.432L75.2925 145.186H74.6089ZM75.6367 148.741L75.9248 147.913H77.3018L77.5923 148.741H78.2368L76.8916 145.186H76.3374L74.9946 148.741H75.6367ZM76.6133 145.94L77.1284 147.415H76.0981L76.6133 145.94ZM79.8701 147.33C79.7806 147.466 79.7358 147.617 79.7358 147.781C79.7358 148.081 79.8408 148.324 80.0508 148.511C80.2624 148.697 80.5439 148.79 80.8955 148.79C81.2471 148.79 81.5498 148.694 81.8037 148.504L82.0039 148.741H82.6924L82.1699 148.123C82.375 147.843 82.4775 147.484 82.4775 147.046H81.9624C81.9624 147.286 81.9128 147.503 81.8135 147.698L81.1274 146.888L81.3691 146.712C81.54 146.588 81.6629 146.465 81.7378 146.341C81.8127 146.216 81.8501 146.079 81.8501 145.931C81.8501 145.706 81.7671 145.518 81.6011 145.367C81.4367 145.214 81.2251 145.137 80.9663 145.137C80.6798 145.137 80.452 145.219 80.2827 145.381C80.1134 145.543 80.0288 145.762 80.0288 146.041C80.0288 146.155 80.0557 146.273 80.1094 146.395C80.1647 146.517 80.2616 146.665 80.3999 146.839C80.1362 147.028 79.9596 147.191 79.8701 147.33ZM81.4741 148.116C81.3 148.249 81.1128 148.316 80.9126 148.316C80.7352 148.316 80.5936 148.265 80.4878 148.162C80.382 148.06 80.3291 147.926 80.3291 147.762C80.3291 147.571 80.4268 147.402 80.6221 147.254L80.6978 147.2L81.4741 148.116ZM80.8369 146.541C80.6693 146.334 80.5854 146.163 80.5854 146.026C80.5854 145.907 80.6196 145.809 80.688 145.731C80.7563 145.652 80.8483 145.613 80.9639 145.613C81.0713 145.613 81.16 145.647 81.23 145.713C81.3 145.779 81.335 145.857 81.335 145.95C81.335 146.09 81.2845 146.205 81.1836 146.294L81.1079 146.356L80.8369 146.541ZM86.623 148.472C86.8672 148.259 87.0072 147.963 87.043 147.584H86.4277C86.3952 147.837 86.3179 148.019 86.1958 148.128C86.0737 148.237 85.8914 148.292 85.6489 148.292C85.3836 148.292 85.1818 148.191 85.0435 147.989C84.9067 147.787 84.8384 147.494 84.8384 147.11V146.795C84.8416 146.416 84.9149 146.128 85.0581 145.933C85.203 145.736 85.4097 145.638 85.6782 145.638C85.9093 145.638 86.0843 145.695 86.2031 145.809C86.3236 145.921 86.3984 146.105 86.4277 146.36H87.043C87.0039 145.971 86.8647 145.67 86.6255 145.457C86.3862 145.244 86.0705 145.137 85.6782 145.137C85.3869 145.137 85.1297 145.206 84.9067 145.345C84.6854 145.483 84.5153 145.68 84.3965 145.936C84.2777 146.191 84.2183 146.487 84.2183 146.822V147.154C84.2231 147.481 84.2842 147.768 84.4014 148.016C84.5186 148.263 84.6846 148.454 84.8994 148.589C85.1159 148.723 85.3657 148.79 85.6489 148.79C86.0542 148.79 86.3789 148.684 86.623 148.472ZM90.2534 147.974C90.3739 147.711 90.4341 147.405 90.4341 147.056V146.858C90.4325 146.512 90.3706 146.208 90.2485 145.948C90.1265 145.686 89.9531 145.486 89.7285 145.347C89.5055 145.207 89.2492 145.137 88.9595 145.137C88.6698 145.137 88.4126 145.208 88.188 145.35C87.965 145.49 87.7917 145.692 87.668 145.958C87.5459 146.223 87.4849 146.529 87.4849 146.876V147.076C87.4865 147.416 87.5483 147.716 87.6704 147.977C87.7941 148.237 87.9683 148.438 88.1929 148.58C88.4191 148.72 88.6763 148.79 88.9644 148.79C89.2557 148.79 89.5129 148.72 89.7358 148.58C89.9604 148.438 90.133 148.236 90.2534 147.974ZM89.5918 145.965C89.7415 146.175 89.8164 146.477 89.8164 146.871V147.056C89.8164 147.457 89.7423 147.761 89.5942 147.969C89.4478 148.178 89.2378 148.282 88.9644 148.282C88.6942 148.282 88.4826 148.175 88.3296 147.962C88.1782 147.749 88.1025 147.447 88.1025 147.056V146.851C88.1058 146.469 88.1823 146.173 88.332 145.965C88.4834 145.755 88.6925 145.65 88.9595 145.65C89.2329 145.65 89.4437 145.755 89.5918 145.965Z" fill="#AFB1B8"/>
</g>
<rect x="200.5" y="81.5" width="169" height="80" rx="3.5" stroke="#AFB1B8"/>
<g clip-path="url(#clip1_75273_664)">
<path fill-rule="evenodd" clip-rule="evenodd" d="M282.114 101.021H281.977C281.767 101.009 281.557 101.004 281.347 100.999H281.347H281.327H280.892C280.495 100.999 280.09 101.009 279.688 101.029C279.657 101.027 279.627 101.027 279.597 101.029C275.952 101.236 272.382 102.146 269.08 103.712L268.648 103.92V126.062L269.66 125.718C270.548 125.413 271.494 125.138 272.473 124.884C275.119 124.205 277.837 123.844 280.568 123.809V126.718C280.206 126.72 279.855 126.73 279.503 126.748H279.419C277.318 126.863 275.232 127.184 273.191 127.704C270.607 128.351 268.114 129.323 265.772 130.596V102.199C268.205 100.78 270.825 99.7138 273.556 99.0329C275.953 98.414 278.417 98.0963 280.892 98.087H281.319C281.83 98.0997 282.329 98.1226 282.797 98.1582C284.03 98.2448 285.253 98.4396 286.452 98.7405V101.604C285.287 101.332 284.103 101.154 282.91 101.07C282.886 101.068 282.862 101.066 282.838 101.064C282.591 101.043 282.344 101.021 282.114 101.021ZM287.153 103.948C287.788 103.997 288.445 104.02 289.111 104.02C291.713 104.01 294.303 103.678 296.824 103.03C299.407 102.381 301.899 101.409 304.241 100.137V128.027C301.807 129.445 299.185 130.511 296.455 131.193C294.057 131.81 291.593 132.127 289.118 132.137C287.243 132.152 285.374 131.931 283.553 131.48V103.409C283.983 103.508 284.426 103.6 284.876 103.676C285.615 103.801 286.394 103.892 287.153 103.948ZM301.347 104.165L300.335 104.505C299.404 104.818 298.466 105.098 297.522 105.347C294.775 106.053 291.951 106.415 289.116 106.425C288.456 106.425 287.848 106.407 287.262 106.369L286.455 106.316V126.405V129.093L287.148 129.154C287.79 129.21 288.453 129.238 289.121 129.238C291.354 129.228 293.578 128.94 295.741 128.381C297.522 127.934 299.255 127.311 300.914 126.522L301.347 126.313V104.165Z" fill="#AFB1B8"/>
<path d="M267.737 140.299C267.592 140.149 267.416 140.03 267.222 139.952C267.028 139.873 266.82 139.837 266.611 139.844C266.389 139.841 266.168 139.883 265.961 139.966C265.772 140.042 265.6 140.155 265.455 140.299C265.312 140.444 265.201 140.617 265.129 140.808C265.05 141.008 265.01 141.221 265.013 141.436V145.23C265.004 145.497 265.055 145.763 265.162 146.008C265.251 146.203 265.381 146.376 265.541 146.517C265.693 146.645 265.871 146.737 266.062 146.786C266.247 146.838 266.438 146.865 266.629 146.865C266.84 146.867 267.05 146.822 267.241 146.733C267.431 146.65 267.603 146.531 267.747 146.382C267.888 146.235 268.001 146.062 268.079 145.873C268.16 145.682 268.201 145.476 268.2 145.268V144.844H267.208V145.182C267.211 145.297 267.192 145.412 267.15 145.52C267.118 145.601 267.069 145.674 267.006 145.734C266.945 145.783 266.874 145.82 266.799 145.843C266.732 145.865 266.662 145.877 266.591 145.879C266.503 145.889 266.413 145.875 266.331 145.84C266.249 145.804 266.179 145.747 266.126 145.675C266.032 145.523 265.986 145.345 265.994 145.167V141.629C265.988 141.433 266.03 141.239 266.116 141.062C266.167 140.982 266.24 140.918 266.326 140.878C266.412 140.837 266.507 140.822 266.601 140.833C266.687 140.83 266.772 140.848 266.849 140.885C266.926 140.923 266.993 140.978 267.044 141.047C267.155 141.193 267.213 141.372 267.208 141.556V141.884H268.19V141.497C268.192 141.27 268.151 141.045 268.069 140.833C267.995 140.635 267.883 140.453 267.737 140.299Z" fill="#AFB1B8"/>
<path d="M273.629 140.256C273.313 139.989 272.914 139.842 272.501 139.839C272.299 139.84 272.098 139.876 271.909 139.946C271.716 140.015 271.538 140.12 271.385 140.256C271.221 140.404 271.09 140.585 271.001 140.788C270.901 141.019 270.851 141.27 270.856 141.523V145.161C270.85 145.417 270.899 145.672 271.001 145.906C271.09 146.102 271.222 146.276 271.385 146.415C271.537 146.556 271.715 146.665 271.909 146.735C272.098 146.805 272.299 146.841 272.501 146.842C272.703 146.842 272.903 146.806 273.093 146.735C273.29 146.664 273.472 146.555 273.629 146.415C273.787 146.273 273.915 146.1 274.003 145.906C274.105 145.672 274.154 145.417 274.148 145.161V141.523C274.152 141.27 274.103 141.019 274.003 140.788C273.915 140.587 273.788 140.406 273.629 140.256ZM273.166 145.161C273.174 145.258 273.161 145.356 273.127 145.447C273.093 145.538 273.039 145.62 272.969 145.688C272.838 145.798 272.673 145.858 272.502 145.858C272.331 145.858 272.166 145.798 272.035 145.688C271.965 145.62 271.911 145.538 271.877 145.447C271.843 145.356 271.83 145.258 271.838 145.161V141.523C271.83 141.426 271.843 141.328 271.877 141.237C271.911 141.146 271.965 141.063 272.035 140.996C272.166 140.886 272.331 140.826 272.502 140.826C272.673 140.826 272.838 140.886 272.969 140.996C273.039 141.063 273.093 141.146 273.127 141.237C273.161 141.328 273.174 141.426 273.166 141.523V145.161Z" fill="#AFB1B8"/>
<path d="M281.367 146.786V139.898H280.414L279.161 143.544H279.144L277.881 139.898H276.938V146.786H277.922V142.596H277.94L278.903 145.558H279.394L280.366 142.596H280.383V146.786H281.367Z" fill="#AFB1B8"/>
<path d="M286.958 140.381C286.807 140.211 286.615 140.081 286.402 140.004C286.171 139.929 285.93 139.893 285.688 139.898H284.226V146.786H285.207V144.096H285.713C286.02 144.11 286.324 144.045 286.599 143.908C286.822 143.784 287.008 143.602 287.138 143.381C287.251 143.198 287.328 142.994 287.363 142.781C287.401 142.522 287.419 142.26 287.416 141.998C287.425 141.667 287.393 141.337 287.32 141.014C287.254 140.776 287.13 140.558 286.958 140.381ZM286.452 142.481C286.448 142.606 286.417 142.728 286.361 142.84C286.305 142.946 286.216 143.03 286.108 143.081C285.963 143.146 285.804 143.176 285.645 143.168H285.197V140.826H285.703C285.856 140.818 286.008 140.848 286.146 140.912C286.248 140.97 286.328 141.059 286.376 141.166C286.43 141.287 286.459 141.418 286.462 141.55C286.462 141.695 286.462 141.848 286.462 142.008C286.462 142.168 286.472 142.334 286.462 142.481H286.452Z" fill="#AFB1B8"/>
<path d="M291.608 139.898H290.803L289.285 146.786H290.267L290.555 145.306H291.894L292.182 146.786H293.163L291.608 139.898ZM290.702 144.368L291.185 141.871H291.203L291.684 144.368H290.702Z" fill="#AFB1B8"/>
<path d="M297.95 144.048H297.932L296.45 139.898H295.506V146.786H296.488V142.644H296.508L298.008 146.786H298.931V139.898H297.95V144.048Z" fill="#AFB1B8"/>
<path d="M303.948 139.898L303.158 142.636H303.138L302.349 139.898H301.309L302.657 143.875V146.786H303.639V143.875L304.987 139.898H303.948Z" fill="#AFB1B8"/>
</g>
<rect x="400.5" y="81.5" width="169" height="80" rx="3.5" stroke="#AFB1B8"/>
<path d="M468.406 144.188C468.422 144.189 468.438 144.192 468.452 144.198C468.467 144.203 468.48 144.212 468.491 144.222L468.709 144.43C468.54 144.599 468.33 144.734 468.095 144.826C467.82 144.926 467.524 144.975 467.226 144.968C466.945 144.973 466.667 144.928 466.408 144.835C466.174 144.75 465.964 144.623 465.792 144.461C465.616 144.293 465.481 144.097 465.394 143.883C465.298 143.644 465.251 143.394 465.254 143.141C465.251 142.887 465.301 142.635 465.404 142.397C465.5 142.182 465.643 141.986 465.827 141.819C466.013 141.656 466.236 141.528 466.481 141.443C466.75 141.352 467.036 141.307 467.324 141.31C467.591 141.304 467.857 141.345 468.106 141.431C468.322 141.512 468.521 141.625 468.693 141.765L468.51 141.987C468.497 142.003 468.482 142.017 468.464 142.028C468.442 142.041 468.416 142.046 468.39 142.044C468.362 142.043 468.334 142.034 468.311 142.021L468.213 141.961L468.076 141.886C468.018 141.857 467.956 141.833 467.894 141.812C467.813 141.787 467.73 141.767 467.646 141.753C467.539 141.736 467.43 141.728 467.321 141.729C467.114 141.727 466.908 141.761 466.716 141.829C466.537 141.892 466.375 141.987 466.241 142.108C466.106 142.237 466.001 142.389 465.933 142.554C465.857 142.742 465.819 142.941 465.822 143.141C465.818 143.344 465.856 143.547 465.933 143.738C466 143.902 466.103 144.052 466.236 144.181C466.361 144.302 466.516 144.396 466.689 144.456C466.867 144.52 467.058 144.553 467.25 144.551C467.362 144.552 467.473 144.546 467.583 144.532C467.763 144.513 467.935 144.459 468.087 144.373C468.164 144.33 468.236 144.28 468.303 144.226C468.331 144.203 468.368 144.19 468.406 144.188Z" fill="#AFB1B8"/>
<path d="M474.704 143.141C474.708 143.392 474.658 143.642 474.557 143.878C474.468 144.091 474.328 144.286 474.147 144.45C473.965 144.613 473.745 144.741 473.502 144.825C472.968 145.002 472.378 145.002 471.844 144.825C471.603 144.74 471.385 144.611 471.204 144.449C471.022 144.282 470.881 144.086 470.789 143.871C470.593 143.393 470.593 142.872 470.789 142.395C470.882 142.179 471.023 141.982 471.204 141.814C471.386 141.656 471.604 141.533 471.844 141.452C472.378 141.272 472.969 141.272 473.502 141.452C473.744 141.537 473.963 141.665 474.146 141.828C474.325 141.993 474.465 142.187 474.557 142.399C474.658 142.637 474.708 142.888 474.704 143.141ZM474.132 143.141C474.136 142.94 474.101 142.739 474.028 142.549C473.967 142.385 473.868 142.234 473.737 142.106C473.609 141.984 473.451 141.888 473.276 141.826C472.888 141.696 472.459 141.696 472.071 141.826C471.895 141.888 471.738 141.984 471.61 142.106C471.477 142.233 471.376 142.384 471.315 142.549C471.177 142.934 471.177 143.347 471.315 143.733C471.377 143.897 471.477 144.048 471.61 144.176C471.738 144.297 471.895 144.392 472.071 144.453C472.459 144.58 472.887 144.58 473.276 144.453C473.451 144.392 473.609 144.297 473.737 144.176C473.867 144.047 473.967 143.896 474.028 143.733C474.101 143.542 474.136 143.342 474.132 143.141Z" fill="#AFB1B8"/>
<path d="M479.001 143.762L479.059 143.894C479.08 143.847 479.099 143.804 479.121 143.762C479.142 143.717 479.166 143.674 479.192 143.631L480.585 141.431C480.613 141.393 480.637 141.369 480.664 141.362C480.702 141.352 480.74 141.348 480.779 141.35H481.191V144.93H480.703V142.298C480.703 142.265 480.703 142.227 480.703 142.187C480.7 142.145 480.7 142.104 480.703 142.063L479.301 144.295C479.283 144.328 479.255 144.356 479.219 144.376C479.183 144.396 479.142 144.406 479.099 144.406H479.02C478.978 144.407 478.936 144.396 478.9 144.377C478.865 144.357 478.836 144.328 478.819 144.295L477.376 142.049C477.376 142.092 477.376 142.134 477.376 142.177C477.376 142.22 477.376 142.258 477.376 142.291V144.922H476.905V141.35H477.316C477.355 141.348 477.394 141.352 477.431 141.362C477.465 141.377 477.492 141.401 477.507 141.431L478.93 143.634C478.958 143.675 478.982 143.717 479.001 143.762Z" fill="#AFB1B8"/>
<path d="M484.244 143.584V144.925H483.699V141.35H484.915C485.145 141.346 485.373 141.373 485.594 141.428C485.77 141.472 485.934 141.548 486.074 141.651C486.195 141.748 486.288 141.868 486.346 142.002C486.411 142.147 486.442 142.303 486.439 142.459C486.442 142.616 486.407 142.771 486.338 142.916C486.273 143.053 486.172 143.175 486.044 143.274C485.904 143.381 485.739 143.462 485.561 143.51C485.349 143.569 485.127 143.597 484.904 143.593L484.244 143.584ZM484.244 143.2H484.904C485.047 143.202 485.19 143.183 485.327 143.146C485.439 143.113 485.543 143.06 485.632 142.992C485.714 142.926 485.777 142.845 485.818 142.755C485.862 142.659 485.884 142.557 485.883 142.454C485.889 142.355 485.871 142.255 485.828 142.163C485.786 142.07 485.721 141.987 485.638 141.919C485.429 141.777 485.168 141.709 484.904 141.727H484.244V143.2Z" fill="#AFB1B8"/>
<path d="M491.573 144.929H491.142C491.099 144.931 491.057 144.919 491.022 144.896C490.991 144.874 490.967 144.846 490.951 144.813L490.581 143.949H488.718L488.334 144.813C488.32 144.845 488.296 144.873 488.266 144.894C488.231 144.918 488.188 144.931 488.143 144.929H487.712L489.348 141.35H489.915L491.573 144.929ZM488.874 143.6H490.412L489.763 142.143C489.713 142.034 489.672 141.921 489.64 141.807L489.577 141.994C489.558 142.051 489.536 142.103 489.517 142.146L488.874 143.6Z" fill="#AFB1B8"/>
<path d="M493.929 141.367C493.961 141.382 493.989 141.404 494.011 141.43L496.396 144.129C496.396 144.086 496.396 144.043 496.396 144.003C496.396 143.963 496.396 143.923 496.396 143.885V141.35H496.884V144.929H496.612C496.573 144.93 496.535 144.923 496.5 144.908C496.466 144.891 496.437 144.869 496.413 144.842L494.03 142.146C494.032 142.187 494.032 142.228 494.03 142.269C494.03 142.309 494.03 142.345 494.03 142.378V144.929H493.542V141.35H493.831C493.864 141.349 493.898 141.355 493.929 141.367Z" fill="#AFB1B8"/>
<path d="M500.903 143.506V144.927H500.358V143.506L498.85 141.35H499.338C499.38 141.348 499.422 141.359 499.455 141.381C499.485 141.404 499.51 141.431 499.529 141.461L500.472 142.852C500.51 142.911 500.543 142.966 500.57 143.018C500.598 143.07 500.62 143.12 500.639 143.169L500.71 143.015C500.736 142.959 500.767 142.905 500.802 142.852L501.732 141.452C501.751 141.424 501.775 141.399 501.803 141.376C501.835 141.352 501.877 141.339 501.92 141.341H502.414L500.903 143.506Z" fill="#AFB1B8"/>
<path d="M478.731 135.343C478.969 135.369 479.209 135.39 479.451 135.409C483.13 133.98 486.242 131.639 488.399 128.681C490.555 125.723 491.66 122.278 491.576 118.777L487.522 115.255C488.346 118.982 487.96 122.835 486.408 126.383C484.856 129.931 482.198 133.033 478.731 135.343Z" fill="#AFB1B8"/>
<path d="M477.284 135.179L477.393 135.198C481.097 132.896 483.921 129.682 485.499 125.971C487.078 122.26 487.339 118.222 486.248 114.381L480.474 109.364C482.809 113.488 483.75 118.103 483.185 122.673C482.62 127.243 480.574 131.58 477.284 135.179Z" fill="#AFB1B8"/>
<path d="M496.868 122.914C495.887 126.76 493.504 130.229 490.074 132.806C489.072 133.563 487.991 134.237 486.845 134.819C489.639 134.106 492.206 132.845 494.35 131.133C496.494 129.421 498.157 127.304 499.21 124.946L496.868 122.914Z" fill="#AFB1B8"/>
<path d="M495.949 122.347L492.615 119.45C492.551 122.753 491.47 125.981 489.485 128.798C487.499 131.616 484.681 133.92 481.324 135.471H481.341C482.089 135.471 482.836 135.432 483.579 135.355C486.716 134.242 489.488 132.472 491.646 130.202C493.805 127.933 495.283 125.234 495.949 122.347Z" fill="#AFB1B8"/>
<path d="M477.766 107.248L473.788 103.787C470.232 104.981 467.174 107.08 465.013 109.809C462.853 112.538 461.691 115.771 461.68 119.083V119.083C461.693 122.743 463.111 126.295 465.709 129.176C468.307 132.057 471.937 134.103 476.024 134.99C479.672 131.128 481.809 126.356 482.122 121.367C482.435 116.378 480.909 111.432 477.766 107.248Z" fill="#AFB1B8"/>
<path d="M505.14 121.814C505.126 117.472 503.134 113.311 499.6 110.24C496.066 107.17 491.276 105.439 486.278 105.427C483.969 105.424 481.679 105.795 479.525 106.519L503.88 127.68C504.714 125.809 505.142 123.82 505.14 121.814Z" fill="#AFB1B8"/>
<rect x="600.5" y="81.5" width="169" height="80" rx="3.5" stroke="#2196F3"/>
<path d="M656.146 116.19H656.143C653.745 116.19 651.801 117.917 651.801 120.049V120.051C651.801 122.182 653.745 123.91 656.143 123.91H656.146C658.544 123.91 660.488 122.182 660.488 120.051V120.049C660.488 117.917 658.544 116.19 656.146 116.19Z" fill="#2196F3"/>
<path d="M688.195 114.956C688.188 111.996 686.862 109.159 684.507 107.066C682.152 104.973 678.96 103.794 675.63 103.787V103.787C672.298 103.792 669.105 104.971 666.748 107.064C664.392 109.158 663.066 111.995 663.059 114.956V131.279C663.059 131.279 688.192 128.791 688.195 114.959V114.956Z" fill="#2196F3"/>
<path d="M643 136.637C643.006 138.696 643.929 140.67 645.568 142.126C647.206 143.583 649.427 144.404 651.744 144.41C654.061 144.404 656.281 143.583 657.92 142.127C659.558 140.671 660.482 138.698 660.488 136.639V125.281C660.488 125.281 643 127.014 643 136.637ZM651.744 138.671C651.291 138.671 650.849 138.552 650.472 138.329C650.095 138.105 649.802 137.787 649.629 137.415C649.455 137.043 649.41 136.634 649.498 136.24C649.587 135.845 649.805 135.482 650.125 135.198C650.445 134.913 650.853 134.719 651.297 134.641C651.742 134.562 652.202 134.602 652.62 134.756C653.039 134.91 653.396 135.171 653.648 135.506C653.9 135.841 654.034 136.234 654.034 136.637C654.035 136.904 653.977 137.17 653.862 137.418C653.748 137.665 653.579 137.891 653.366 138.08C653.154 138.27 652.901 138.421 652.622 138.523C652.344 138.626 652.046 138.679 651.744 138.679V138.671Z" fill="#2196F3"/>
<path d="M667.73 135.028V139.294H666.851V135.028H667.73ZM669.429 136.851V137.536H667.49V136.851H669.429ZM669.634 135.028V135.717H667.49V135.028H669.634ZM673.648 137.062V137.264C673.648 137.588 673.604 137.879 673.516 138.137C673.428 138.395 673.304 138.614 673.144 138.796C672.984 138.976 672.793 139.113 672.57 139.209C672.349 139.305 672.104 139.353 671.835 139.353C671.567 139.353 671.322 139.305 671.099 139.209C670.879 139.113 670.687 138.976 670.525 138.796C670.363 138.614 670.237 138.395 670.147 138.137C670.059 137.879 670.015 137.588 670.015 137.264V137.062C670.015 136.735 670.059 136.444 670.147 136.188C670.235 135.931 670.359 135.711 670.519 135.529C670.681 135.348 670.873 135.209 671.093 135.113C671.316 135.018 671.561 134.97 671.829 134.97C672.098 134.97 672.343 135.018 672.564 135.113C672.787 135.209 672.978 135.348 673.138 135.529C673.3 135.711 673.425 135.931 673.513 136.188C673.603 136.444 673.648 136.735 673.648 137.062ZM672.76 137.264V137.056C672.76 136.829 672.74 136.63 672.699 136.458C672.658 136.286 672.597 136.142 672.517 136.024C672.437 135.907 672.34 135.819 672.224 135.761C672.109 135.7 671.977 135.67 671.829 135.67C671.68 135.67 671.549 135.7 671.433 135.761C671.32 135.819 671.223 135.907 671.143 136.024C671.065 136.142 671.006 136.286 670.965 136.458C670.924 136.63 670.903 136.829 670.903 137.056V137.264C670.903 137.488 670.924 137.688 670.965 137.861C671.006 138.033 671.066 138.179 671.146 138.298C671.226 138.415 671.324 138.504 671.439 138.564C671.554 138.625 671.686 138.655 671.835 138.655C671.983 138.655 672.115 138.625 672.23 138.564C672.345 138.504 672.442 138.415 672.52 138.298C672.598 138.179 672.658 138.033 672.699 137.861C672.74 137.688 672.76 137.488 672.76 137.264ZM676.502 138.178C676.502 138.102 676.49 138.033 676.466 137.973C676.445 137.91 676.404 137.854 676.343 137.803C676.283 137.75 676.198 137.698 676.089 137.647C675.979 137.597 675.838 137.544 675.664 137.489C675.47 137.427 675.287 137.356 675.113 137.278C674.941 137.2 674.789 137.109 674.656 137.006C674.525 136.9 674.422 136.778 674.345 136.64C674.271 136.501 674.234 136.34 674.234 136.156C674.234 135.979 674.273 135.817 674.351 135.673C674.429 135.526 674.539 135.401 674.679 135.298C674.82 135.192 674.986 135.111 675.177 135.055C675.371 134.998 675.583 134.97 675.813 134.97C676.128 134.97 676.402 135.026 676.636 135.14C676.871 135.253 677.052 135.408 677.181 135.605C677.312 135.803 677.378 136.028 677.378 136.282H676.505C676.505 136.157 676.478 136.048 676.425 135.954C676.375 135.858 676.297 135.783 676.191 135.729C676.088 135.674 675.957 135.646 675.799 135.646C675.646 135.646 675.519 135.67 675.418 135.717C675.316 135.762 675.24 135.823 675.189 135.901C675.138 135.978 675.113 136.063 675.113 136.159C675.113 136.231 675.131 136.297 675.166 136.355C675.203 136.414 675.258 136.469 675.33 136.52C675.402 136.57 675.491 136.618 675.596 136.663C675.702 136.708 675.824 136.752 675.963 136.795C676.195 136.865 676.399 136.944 676.575 137.032C676.753 137.12 676.901 137.219 677.02 137.328C677.139 137.438 677.229 137.562 677.29 137.7C677.35 137.839 677.381 137.996 677.381 138.172C677.381 138.357 677.344 138.523 677.272 138.67C677.2 138.816 677.095 138.94 676.959 139.042C676.822 139.144 676.659 139.221 676.469 139.273C676.28 139.326 676.068 139.353 675.834 139.353C675.623 139.353 675.415 139.325 675.21 139.271C675.005 139.214 674.818 139.129 674.65 139.016C674.484 138.902 674.351 138.758 674.252 138.582C674.152 138.406 674.102 138.198 674.102 137.958H674.984C674.984 138.091 675.005 138.203 675.046 138.295C675.087 138.387 675.144 138.461 675.218 138.518C675.295 138.574 675.384 138.615 675.488 138.641C675.593 138.666 675.709 138.679 675.834 138.679C675.986 138.679 676.111 138.657 676.209 138.614C676.308 138.571 676.382 138.512 676.428 138.436C676.477 138.359 676.502 138.273 676.502 138.178ZM679.885 135.028V139.294H679.009V135.028H679.885ZM681.198 135.028V135.717H677.717V135.028H681.198ZM684.561 138.608V139.294H682.291V138.608H684.561ZM682.578 135.028V139.294H681.699V135.028H682.578ZM684.265 136.766V137.434H682.291V136.766H684.265ZM684.558 135.028V135.717H682.291V135.028H684.558ZM685.074 135.028H686.665C686.991 135.028 687.271 135.077 687.506 135.175C687.742 135.272 687.924 135.417 688.05 135.608C688.177 135.8 688.241 136.035 688.241 136.314C688.241 136.543 688.202 136.739 688.124 136.903C688.048 137.065 687.939 137.201 687.799 137.311C687.66 137.418 687.497 137.504 687.309 137.568L687.031 137.715H685.648L685.642 137.029H686.671C686.825 137.029 686.953 137.002 687.054 136.947C687.156 136.893 687.232 136.816 687.283 136.719C687.336 136.621 687.362 136.508 687.362 136.379C687.362 136.242 687.337 136.124 687.286 136.024C687.235 135.925 687.158 135.849 687.054 135.796C686.951 135.743 686.821 135.717 686.665 135.717H685.953V139.294H685.074V135.028ZM687.459 139.294L686.486 137.393L687.415 137.387L688.399 139.253V139.294H687.459ZM692.073 137.773H690.986V137.088H692.073C692.241 137.088 692.378 137.061 692.483 137.006C692.589 136.949 692.666 136.871 692.715 136.771C692.763 136.672 692.788 136.56 692.788 136.435C692.788 136.308 692.763 136.189 692.715 136.08C692.666 135.971 692.589 135.883 692.483 135.816C692.378 135.75 692.241 135.717 692.073 135.717H691.291V139.294H690.412V135.028H692.073C692.407 135.028 692.693 135.089 692.931 135.21C693.172 135.329 693.355 135.494 693.482 135.705C693.609 135.916 693.673 136.157 693.673 136.429C693.673 136.704 693.609 136.942 693.482 137.144C693.355 137.345 693.172 137.5 692.931 137.609C692.693 137.719 692.407 137.773 692.073 137.773ZM697.141 138.608V139.294H694.871V138.608H697.141ZM695.158 135.028V139.294H694.279V135.028H695.158ZM696.845 136.766V137.434H694.871V136.766H696.845ZM697.138 135.028V135.717H694.871V135.028H697.138ZM699.62 135.028V139.294H698.744V135.028H699.62ZM700.932 135.028V135.717H697.452V135.028H700.932ZM704.296 138.608V139.294H702.025V138.608H704.296ZM702.312 135.028V139.294H701.433V135.028H702.312ZM704 136.766V137.434H702.025V136.766H704ZM704.293 135.028V135.717H702.025V135.028H704.293ZM704.808 135.028H706.399C706.725 135.028 707.006 135.077 707.24 135.175C707.476 135.272 707.658 135.417 707.785 135.608C707.912 135.8 707.975 136.035 707.975 136.314C707.975 136.543 707.936 136.739 707.858 136.903C707.782 137.065 707.674 137.201 707.533 137.311C707.394 137.418 707.231 137.504 707.044 137.568L706.765 137.715H705.383L705.377 137.029H706.405C706.559 137.029 706.687 137.002 706.789 136.947C706.89 136.893 706.966 136.816 707.017 136.719C707.07 136.621 707.096 136.508 707.096 136.379C707.096 136.242 707.071 136.124 707.02 136.024C706.969 135.925 706.892 135.849 706.789 135.796C706.685 135.743 706.555 135.717 706.399 135.717H705.687V139.294H704.808V135.028ZM707.193 139.294L706.22 137.393L707.149 137.387L708.133 139.253V139.294H707.193ZM710.873 138.178C710.873 138.102 710.861 138.033 710.838 137.973C710.816 137.91 710.775 137.854 710.715 137.803C710.654 137.75 710.569 137.698 710.46 137.647C710.35 137.597 710.209 137.544 710.035 137.489C709.841 137.427 709.658 137.356 709.484 137.278C709.312 137.2 709.16 137.109 709.027 137.006C708.896 136.9 708.793 136.778 708.716 136.64C708.642 136.501 708.605 136.34 708.605 136.156C708.605 135.979 708.644 135.817 708.722 135.673C708.8 135.526 708.91 135.401 709.05 135.298C709.191 135.192 709.357 135.111 709.549 135.055C709.742 134.998 709.954 134.97 710.184 134.97C710.499 134.97 710.773 135.026 711.008 135.14C711.242 135.253 711.424 135.408 711.552 135.605C711.683 135.803 711.749 136.028 711.749 136.282H710.876C710.876 136.157 710.849 136.048 710.797 135.954C710.746 135.858 710.668 135.783 710.562 135.729C710.459 135.674 710.328 135.646 710.17 135.646C710.017 135.646 709.89 135.67 709.789 135.717C709.687 135.762 709.611 135.823 709.56 135.901C709.509 135.978 709.484 136.063 709.484 136.159C709.484 136.231 709.502 136.297 709.537 136.355C709.574 136.414 709.629 136.469 709.701 136.52C709.773 136.57 709.862 136.618 709.967 136.663C710.073 136.708 710.195 136.752 710.334 136.795C710.566 136.865 710.77 136.944 710.946 137.032C711.124 137.12 711.272 137.219 711.391 137.328C711.51 137.438 711.6 137.562 711.661 137.7C711.721 137.839 711.752 137.996 711.752 138.172C711.752 138.357 711.716 138.523 711.643 138.67C711.571 138.816 711.466 138.94 711.33 139.042C711.193 139.144 711.03 139.221 710.841 139.273C710.651 139.326 710.439 139.353 710.205 139.353C709.994 139.353 709.786 139.325 709.581 139.271C709.376 139.214 709.189 139.129 709.021 139.016C708.855 138.902 708.722 138.758 708.623 138.582C708.523 138.406 708.473 138.198 708.473 137.958H709.355C709.355 138.091 709.376 138.203 709.417 138.295C709.458 138.387 709.515 138.461 709.59 138.518C709.666 138.574 709.756 138.615 709.859 138.641C709.965 138.666 710.08 138.679 710.205 138.679C710.357 138.679 710.482 138.657 710.58 138.614C710.679 138.571 710.753 138.512 710.799 138.436C710.848 138.359 710.873 138.273 710.873 138.178Z" fill="#2196F3"/>
<rect x="800.5" y="81.5" width="169" height="80" rx="3.5" stroke="#AFB1B8"/>
<g clip-path="url(#clip2_75273_664)">
<path d="M858.757 139.822C859.001 140.098 859.13 140.444 859.124 140.799C859.136 141.031 859.091 141.262 858.993 141.475C858.895 141.689 858.745 141.88 858.555 142.033C858.082 142.361 857.496 142.521 856.904 142.484H854V136.292H856.844C857.406 136.258 857.963 136.404 858.42 136.704C858.604 136.844 858.749 137.022 858.845 137.223C858.941 137.424 858.984 137.643 858.972 137.862C858.988 138.204 858.871 138.539 858.641 138.809C858.421 139.055 858.116 139.225 857.776 139.293C858.161 139.357 858.509 139.545 858.757 139.822ZM855.351 138.888H856.567C856.843 138.906 857.117 138.833 857.34 138.682C857.431 138.606 857.502 138.512 857.547 138.407C857.593 138.302 857.611 138.189 857.601 138.077C857.609 137.965 857.591 137.853 857.546 137.748C857.502 137.643 857.432 137.549 857.343 137.472C857.114 137.316 856.831 137.242 856.547 137.263H855.351V138.888ZM857.459 141.262C857.556 141.184 857.633 141.087 857.683 140.978C857.733 140.869 857.754 140.751 857.746 140.633C857.753 140.513 857.731 140.394 857.68 140.284C857.629 140.174 857.551 140.076 857.452 139.998C857.214 139.836 856.922 139.757 856.626 139.774H855.351V141.477H856.643C856.933 141.492 857.221 141.416 857.459 141.262Z" fill="#AFB1B8"/>
<path d="M864.571 142.484L862.989 140.064H862.394V142.484H861.033V136.292H863.61C864.259 136.251 864.901 136.439 865.403 136.819C865.764 137.155 865.981 137.597 866.016 138.067C866.051 138.537 865.902 139.003 865.595 139.381C865.277 139.714 864.843 139.936 864.366 140.01L866.051 142.484H864.571ZM862.394 139.22H863.507C864.28 139.22 864.667 138.908 864.667 138.283C864.675 138.155 864.653 138.027 864.604 137.907C864.556 137.788 864.48 137.679 864.383 137.587C864.138 137.401 863.824 137.311 863.507 137.336H862.381L862.394 139.22Z" fill="#AFB1B8"/>
<path d="M872.01 141.238H869.298L868.819 142.484H867.392L869.883 136.362H871.425L873.906 142.484H872.479L872.01 141.238ZM871.647 140.3L870.656 137.687L869.665 140.3H871.647Z" fill="#AFB1B8"/>
<path d="M881.322 142.484H879.971L876.942 138.274V142.484H875.594V136.292H876.942L879.971 140.527V136.292H881.322V142.484Z" fill="#AFB1B8"/>
<path d="M889.033 141.002C888.753 141.469 888.328 141.85 887.81 142.094C887.222 142.366 886.57 142.5 885.911 142.484H883.506V136.292H885.911C886.568 136.277 887.22 136.407 887.81 136.674C888.327 136.912 888.754 137.289 889.033 137.753C889.311 138.257 889.456 138.813 889.456 139.378C889.456 139.942 889.311 140.498 889.033 141.002ZM887.487 140.854C887.872 140.442 888.084 139.918 888.084 139.376C888.084 138.834 887.872 138.31 887.487 137.898C887.021 137.526 886.413 137.337 885.795 137.372H884.857V141.38H885.795C886.413 141.415 887.021 141.226 887.487 140.854Z" fill="#AFB1B8"/>
<path d="M872.856 101.854C872.856 101.854 890.294 107.882 889.925 116.605V131.359C889.925 131.359 872.499 125.328 872.862 116.605L872.856 101.854Z" fill="#AFB1B8"/>
<path d="M905.46 127.905C908.754 125.83 912.563 124.544 916.54 124.166V119.548C911.958 121.165 908.071 124.097 905.46 127.905Z" fill="#AFB1B8"/>
<path d="M903.482 129.296C906.177 124.326 910.85 120.491 916.54 118.58V105.272C916.54 105.272 891.705 113.859 892.23 126.281V147.287C892.23 147.287 893.337 146.903 895.078 146.183C895.078 145.512 895.078 144.834 895.157 144.153C895.671 138.386 898.665 133.042 903.482 129.296Z" fill="#AFB1B8"/>
<path d="M901.12 137.1C901.25 135.643 901.541 134.202 901.989 132.799C898.99 136.034 897.173 140.048 896.796 144.278C896.759 144.677 896.739 145.076 896.729 145.487C898.14 144.867 899.782 144.093 901.506 143.183C901.066 141.182 900.936 139.134 901.12 137.1Z" fill="#AFB1B8"/>
<path d="M902.107 137.176C901.942 139.016 902.045 140.868 902.415 142.684C909.2 138.966 916.824 133.222 916.53 126.281V125.676C911.682 126.173 907.147 128.113 903.62 131.199C902.795 133.111 902.285 135.126 902.107 137.176Z" fill="#AFB1B8"/>
</g>
<rect x="1000.5" y="81.5" width="169" height="80" rx="3.5" stroke="#AFB1B8"/>
<path d="M1085.42 122.495C1084.98 121.905 1084.77 121.208 1084.82 120.507V117.623C1084.82 116.74 1085.02 116.068 1085.42 115.608C1085.82 115.149 1086.51 114.92 1087.49 114.922C1088.4 114.922 1089.06 115.118 1089.44 115.509C1089.86 116.008 1090.06 116.618 1090.02 117.233V117.911H1088.38V117.225C1088.38 117 1088.37 116.775 1088.33 116.553C1088.31 116.401 1088.22 116.26 1088.1 116.154C1087.93 116.039 1087.71 115.984 1087.5 115.999C1087.28 115.984 1087.05 116.043 1086.88 116.163C1086.73 116.28 1086.64 116.435 1086.6 116.603C1086.56 116.838 1086.54 117.077 1086.54 117.315V120.815C1086.51 121.152 1086.59 121.49 1086.75 121.797C1086.83 121.901 1086.94 121.983 1087.08 122.035C1087.21 122.087 1087.36 122.106 1087.5 122.09C1087.71 122.105 1087.92 122.049 1088.08 121.932C1088.22 121.818 1088.3 121.668 1088.33 121.507C1088.36 121.275 1088.38 121.04 1088.38 120.806V120.096H1090.02V120.744C1090.06 121.386 1089.86 122.023 1089.45 122.557C1089.07 122.985 1088.43 123.199 1087.49 123.199C1086.54 123.199 1085.83 122.97 1085.42 122.495Z" fill="#AFB1B8"/>
<path d="M1092.26 122.525C1091.84 122.076 1091.64 121.422 1091.64 120.556V117.524C1091.64 116.667 1091.84 116.019 1092.26 115.579C1092.67 115.139 1093.36 114.92 1094.34 114.922C1095.3 114.922 1095.99 115.141 1096.4 115.579C1096.82 116.019 1097.03 116.667 1097.03 117.524V120.556C1097.03 121.413 1096.82 122.07 1096.4 122.522C1095.98 122.973 1095.29 123.199 1094.34 123.199C1093.38 123.199 1092.67 122.97 1092.26 122.525ZM1095.1 121.797C1095.25 121.516 1095.32 121.208 1095.3 120.9V117.186C1095.32 116.884 1095.25 116.582 1095.1 116.306C1095.02 116.2 1094.9 116.117 1094.77 116.065C1094.63 116.013 1094.48 115.995 1094.34 116.013C1094.19 115.995 1094.04 116.013 1093.9 116.065C1093.77 116.117 1093.65 116.201 1093.56 116.306C1093.42 116.581 1093.35 116.883 1093.37 117.186V120.917C1093.35 121.226 1093.41 121.534 1093.56 121.815C1093.66 121.909 1093.78 121.985 1093.91 122.037C1094.04 122.089 1094.19 122.116 1094.33 122.116C1094.48 122.116 1094.62 122.089 1094.75 122.037C1094.89 121.985 1095 121.909 1095.1 121.815V121.797Z" fill="#AFB1B8"/>
<path d="M1099 115.011H1100.77L1102.1 120.606L1103.46 115.011H1105.18L1105.35 123.087H1104.08L1103.94 117.474L1102.63 123.087H1101.61L1100.25 117.454L1100.13 123.087H1098.84L1099 115.011Z" fill="#AFB1B8"/>
<path d="M1107.33 115.011H1110.08C1111.67 115.011 1112.46 115.775 1112.46 117.304C1112.46 118.768 1111.63 119.5 1109.96 119.498H1109.02V123.087H1107.32L1107.33 115.011ZM1109.68 118.462C1109.85 118.481 1110.02 118.467 1110.18 118.423C1110.34 118.379 1110.49 118.306 1110.62 118.207C1110.81 117.934 1110.9 117.614 1110.86 117.295C1110.87 117.049 1110.84 116.802 1110.78 116.562C1110.75 116.482 1110.71 116.406 1110.65 116.34C1110.59 116.274 1110.52 116.219 1110.44 116.178C1110.2 116.08 1109.94 116.036 1109.68 116.049H1109.02V118.462H1109.68Z" fill="#AFB1B8"/>
<path d="M1114.91 115.011H1116.73L1118.61 123.087H1117.02L1116.65 121.225H1115.02L1114.64 123.087H1113.04L1114.91 115.011ZM1116.47 120.289L1115.83 116.899L1115.2 120.289H1116.47Z" fill="#AFB1B8"/>
<path d="M1120.12 115.011H1121.31L1123.58 119.618V115.011H1124.99V123.087H1123.86L1121.57 118.278V123.087H1120.11L1120.12 115.011Z" fill="#AFB1B8"/>
<path d="M1128.29 120.008L1126.4 115.022H1128L1129.15 118.225L1130.23 115.022H1131.79L1129.93 120.008V123.087H1128.29V120.008Z" fill="#AFB1B8"/>
<path d="M1088.05 126.619V127.041H1086.66V130.323H1086.08V127.041H1084.69V126.619H1088.05Z" fill="#AFB1B8"/>
<path d="M1092.39 130.323H1091.94C1091.9 130.326 1091.85 130.313 1091.82 130.288C1091.78 130.266 1091.76 130.237 1091.74 130.203L1091.34 129.323H1089.42L1089.02 130.203C1089.01 130.24 1088.99 130.274 1088.96 130.303C1088.92 130.327 1088.88 130.34 1088.83 130.338H1088.38L1090.08 126.634H1090.67L1092.39 130.323ZM1089.58 128.948H1091.18L1090.5 127.44C1090.45 127.326 1090.41 127.21 1090.38 127.091C1090.35 127.162 1090.33 127.229 1090.31 127.288L1090.25 127.443L1089.58 128.948Z" fill="#AFB1B8"/>
<path d="M1095.32 129.959C1095.43 129.964 1095.53 129.964 1095.64 129.959C1095.73 129.951 1095.82 129.936 1095.91 129.915C1096 129.898 1096.08 129.875 1096.16 129.848C1096.23 129.821 1096.31 129.789 1096.38 129.757V128.924H1095.7C1095.69 128.925 1095.67 128.922 1095.66 128.917C1095.64 128.912 1095.63 128.905 1095.61 128.895C1095.6 128.886 1095.59 128.876 1095.59 128.864C1095.58 128.852 1095.58 128.84 1095.58 128.827V128.543H1096.9V129.962C1096.79 130.029 1096.68 130.088 1096.56 130.138C1096.44 130.19 1096.31 130.232 1096.18 130.264C1096.04 130.3 1095.9 130.325 1095.76 130.341C1095.59 130.356 1095.43 130.364 1095.26 130.364C1094.97 130.366 1094.68 130.319 1094.4 130.226C1094.15 130.138 1093.92 130.006 1093.72 129.839C1093.54 129.67 1093.39 129.471 1093.29 129.252C1093.18 129.007 1093.13 128.746 1093.13 128.484C1093.13 128.22 1093.18 127.958 1093.28 127.71C1093.38 127.49 1093.53 127.29 1093.72 127.123C1093.91 126.956 1094.15 126.825 1094.4 126.739C1094.69 126.644 1095 126.597 1095.31 126.601C1095.47 126.601 1095.63 126.611 1095.78 126.633C1095.92 126.652 1096.06 126.684 1096.19 126.727C1096.31 126.765 1096.42 126.815 1096.53 126.874C1096.63 126.931 1096.73 126.996 1096.82 127.067L1096.66 127.296C1096.65 127.317 1096.63 127.334 1096.6 127.347C1096.58 127.359 1096.55 127.366 1096.53 127.366C1096.49 127.365 1096.45 127.355 1096.42 127.337C1096.37 127.314 1096.32 127.284 1096.26 127.249C1096.18 127.21 1096.11 127.177 1096.03 127.149C1095.93 127.114 1095.82 127.087 1095.72 127.067C1095.57 127.045 1095.43 127.034 1095.28 127.035C1095.06 127.033 1094.84 127.068 1094.63 127.138C1094.44 127.203 1094.27 127.303 1094.13 127.431C1093.99 127.564 1093.88 127.721 1093.81 127.891C1093.66 128.293 1093.66 128.725 1093.81 129.126C1093.89 129.3 1094 129.459 1094.15 129.593C1094.29 129.72 1094.46 129.82 1094.65 129.886C1094.86 129.95 1095.09 129.975 1095.32 129.959Z" fill="#AFB1B8"/>
<path d="M1100.74 129.9H1102.59V130.323H1100.17V126.619H1100.75L1100.74 129.9Z" fill="#AFB1B8"/>
<path d="M1104.52 130.323H1103.94V126.619H1104.52V130.323Z" fill="#AFB1B8"/>
<path d="M1106.68 126.636C1106.72 126.653 1106.75 126.676 1106.77 126.704L1109.25 129.496C1109.25 129.452 1109.25 129.408 1109.25 129.364C1109.25 129.323 1109.25 129.282 1109.25 129.244V126.604H1109.76V130.323H1109.47C1109.42 130.326 1109.38 130.319 1109.34 130.303C1109.31 130.284 1109.28 130.26 1109.25 130.232L1106.77 127.443C1106.77 127.487 1106.77 127.528 1106.77 127.569C1106.77 127.61 1106.77 127.648 1106.77 127.683V130.323H1106.28V126.619H1106.59C1106.62 126.619 1106.65 126.625 1106.68 126.636Z" fill="#AFB1B8"/>
<path d="M1114.04 126.619V127.026H1111.98V128.249H1113.65V128.642H1111.98V129.906H1114.04V130.314H1111.38V126.619H1114.04Z" fill="#AFB1B8"/>
<path d="M1053.16 103.742L1078.96 110.066V132.224L1053.16 125.903V103.742ZM1051.51 101.854V126.98L1080.61 134.115V108.992L1051.51 101.854Z" fill="#AFB1B8"/>
<path d="M1067.1 145.779L1038 138.637V113.514L1067.1 120.653V145.779Z" fill="#AFB1B8"/>
<path d="M1051.99 103.458L1077.45 109.702L1066.62 119.052L1041.16 112.805L1051.99 103.458ZM1051.51 101.854L1038 113.515L1067.1 120.653L1080.61 108.992L1051.51 101.854Z" fill="#AFB1B8"/>
<path d="M1068.74 144.366L1080.61 134.118L1068.74 131.206V144.366Z" fill="#AFB1B8"/>
<defs>
<clipPath id="clip0_75273_664">
<rect width="106" height="52.8261" fill="white" transform="translate(32 95.087)"/>
</clipPath>
<clipPath id="clip1_75273_664">
<rect width="106" height="52.8261" fill="white" transform="translate(232 95.087)"/>
</clipPath>
<clipPath id="clip2_75273_664">
<rect width="106" height="52.8261" fill="white" transform="translate(832 95.087)"/>
</clipPath>
</defs>
</svg>
