<svg width="370" height="70" viewBox="0 0 370 70" fill="none" xmlns="http://www.w3.org/2000/svg">
<rect width="370" height="70" fill="#2F303A" fill-opacity="0.8"/>
<path d="M108.406 37.3955C108.406 37.2178 108.378 37.0583 108.323 36.917C108.273 36.7712 108.178 36.639 108.036 36.5205C107.895 36.3975 107.697 36.2767 107.442 36.1582C107.186 36.0397 106.856 35.9167 106.45 35.7891C105.999 35.6432 105.571 35.4792 105.165 35.2969C104.764 35.1146 104.409 34.9027 104.099 34.6611C103.794 34.415 103.552 34.1302 103.374 33.8066C103.201 33.4831 103.114 33.1071 103.114 32.6787C103.114 32.264 103.206 31.888 103.388 31.5508C103.57 31.209 103.825 30.9173 104.154 30.6758C104.482 30.4297 104.869 30.2406 105.316 30.1084C105.767 29.9762 106.261 29.9102 106.799 29.9102C107.533 29.9102 108.173 30.0423 108.72 30.3066C109.267 30.571 109.691 30.9333 109.991 31.3936C110.297 31.8538 110.449 32.3802 110.449 32.9727H108.412C108.412 32.681 108.351 32.4258 108.228 32.207C108.109 31.9837 107.927 31.8083 107.681 31.6807C107.439 31.5531 107.134 31.4893 106.765 31.4893C106.409 31.4893 106.113 31.5439 105.876 31.6533C105.639 31.7581 105.461 31.9017 105.343 32.084C105.225 32.2617 105.165 32.4622 105.165 32.6855C105.165 32.8542 105.206 33.0068 105.288 33.1436C105.375 33.2803 105.503 33.4079 105.671 33.5264C105.84 33.6449 106.047 33.7565 106.293 33.8613C106.539 33.9661 106.824 34.0687 107.148 34.1689C107.69 34.333 108.166 34.5176 108.576 34.7227C108.991 34.9277 109.337 35.1579 109.615 35.4131C109.893 35.6683 110.103 35.9577 110.244 36.2812C110.386 36.6048 110.456 36.9717 110.456 37.3818C110.456 37.8148 110.372 38.2021 110.203 38.5439C110.035 38.8857 109.791 39.1751 109.472 39.4121C109.153 39.6491 108.772 39.8291 108.33 39.9521C107.888 40.0752 107.394 40.1367 106.847 40.1367C106.355 40.1367 105.869 40.0729 105.391 39.9453C104.912 39.8132 104.477 39.6149 104.085 39.3506C103.698 39.0863 103.388 38.749 103.156 38.3389C102.923 37.9287 102.807 37.4434 102.807 36.8828H104.864C104.864 37.1927 104.912 37.4548 105.008 37.6689C105.104 37.8831 105.238 38.0563 105.411 38.1885C105.589 38.3206 105.799 38.4163 106.04 38.4756C106.286 38.5348 106.555 38.5645 106.847 38.5645C107.202 38.5645 107.494 38.5143 107.722 38.4141C107.954 38.3138 108.125 38.1748 108.235 37.9971C108.349 37.8193 108.406 37.6188 108.406 37.3955ZM120.447 34.791V35.2627C120.447 36.0192 120.344 36.6982 120.139 37.2998C119.934 37.9014 119.645 38.4141 119.271 38.8379C118.897 39.2572 118.451 39.5785 117.931 39.8018C117.416 40.0251 116.844 40.1367 116.215 40.1367C115.591 40.1367 115.019 40.0251 114.499 39.8018C113.984 39.5785 113.538 39.2572 113.159 38.8379C112.781 38.4141 112.487 37.9014 112.278 37.2998C112.073 36.6982 111.97 36.0192 111.97 35.2627V34.791C111.97 34.0299 112.073 33.3509 112.278 32.7539C112.483 32.1523 112.772 31.6396 113.146 31.2158C113.524 30.792 113.971 30.4684 114.486 30.2451C115.005 30.0218 115.577 29.9102 116.201 29.9102C116.83 29.9102 117.402 30.0218 117.917 30.2451C118.437 30.4684 118.883 30.792 119.257 31.2158C119.635 31.6396 119.927 32.1523 120.132 32.7539C120.342 33.3509 120.447 34.0299 120.447 34.791ZM118.375 35.2627V34.7773C118.375 34.2487 118.327 33.7839 118.232 33.3828C118.136 32.9818 117.995 32.6445 117.808 32.3711C117.621 32.0977 117.393 31.8926 117.124 31.7559C116.855 31.6146 116.548 31.5439 116.201 31.5439C115.855 31.5439 115.548 31.6146 115.279 31.7559C115.014 31.8926 114.789 32.0977 114.602 32.3711C114.42 32.6445 114.281 32.9818 114.185 33.3828C114.089 33.7839 114.041 34.2487 114.041 34.7773V35.2627C114.041 35.7868 114.089 36.2516 114.185 36.6572C114.281 37.0583 114.422 37.3978 114.609 37.6758C114.796 37.9492 115.023 38.1566 115.292 38.2979C115.561 38.4391 115.869 38.5098 116.215 38.5098C116.562 38.5098 116.869 38.4391 117.138 38.2979C117.407 38.1566 117.632 37.9492 117.815 37.6758C117.997 37.3978 118.136 37.0583 118.232 36.6572C118.327 36.2516 118.375 35.7868 118.375 35.2627ZM128.742 38.4004V40H123.731V38.4004H128.742ZM124.394 30.0469V40H122.343V30.0469H124.394ZM135.601 30.0469H137.645V36.623C137.645 37.3887 137.481 38.0335 137.153 38.5576C136.829 39.0817 136.38 39.4759 135.806 39.7402C135.236 40.0046 134.58 40.1367 133.837 40.1367C133.095 40.1367 132.434 40.0046 131.855 39.7402C131.281 39.4759 130.83 39.0817 130.501 38.5576C130.178 38.0335 130.016 37.3887 130.016 36.623V30.0469H132.067V36.623C132.067 37.0697 132.138 37.4342 132.279 37.7168C132.42 37.9993 132.623 38.2067 132.887 38.3389C133.156 38.471 133.473 38.5371 133.837 38.5371C134.211 38.5371 134.528 38.471 134.788 38.3389C135.052 38.2067 135.252 37.9993 135.389 37.7168C135.53 37.4342 135.601 37.0697 135.601 36.623V30.0469ZM145.523 36.6982H147.567C147.526 37.3682 147.341 37.9629 147.013 38.4824C146.69 39.002 146.236 39.4076 145.653 39.6992C145.074 39.9909 144.377 40.1367 143.561 40.1367C142.923 40.1367 142.351 40.0273 141.845 39.8086C141.339 39.5853 140.906 39.2663 140.546 38.8516C140.191 38.4368 139.92 37.9355 139.733 37.3477C139.546 36.7598 139.453 36.1012 139.453 35.3721V34.6816C139.453 33.9525 139.548 33.2939 139.74 32.7061C139.936 32.1136 140.214 31.61 140.574 31.1953C140.938 30.7806 141.374 30.4616 141.879 30.2383C142.385 30.015 142.95 29.9033 143.575 29.9033C144.404 29.9033 145.104 30.0537 145.673 30.3545C146.248 30.6553 146.692 31.07 147.006 31.5986C147.325 32.1273 147.517 32.7288 147.581 33.4033H145.53C145.507 33.0023 145.427 32.6628 145.291 32.3848C145.154 32.1022 144.947 31.8903 144.669 31.749C144.395 31.6032 144.03 31.5303 143.575 31.5303C143.233 31.5303 142.934 31.5941 142.679 31.7217C142.424 31.8493 142.21 32.043 142.037 32.3027C141.864 32.5625 141.734 32.8906 141.647 33.2871C141.565 33.679 141.524 34.1393 141.524 34.668V35.3721C141.524 35.887 141.563 36.3405 141.64 36.7324C141.718 37.1198 141.836 37.4479 141.996 37.7168C142.16 37.9811 142.369 38.1816 142.625 38.3184C142.884 38.4505 143.197 38.5166 143.561 38.5166C143.989 38.5166 144.343 38.4482 144.621 38.3115C144.899 38.1748 145.111 37.972 145.256 37.7031C145.407 37.4342 145.496 37.0993 145.523 36.6982ZM151.514 30.0469V40H149.47V30.0469H151.514ZM162.031 34.791V35.2627C162.031 36.0192 161.928 36.6982 161.723 37.2998C161.518 37.9014 161.229 38.4141 160.855 38.8379C160.481 39.2572 160.035 39.5785 159.515 39.8018C159 40.0251 158.428 40.1367 157.8 40.1367C157.175 40.1367 156.603 40.0251 156.084 39.8018C155.569 39.5785 155.122 39.2572 154.744 38.8379C154.366 38.4141 154.072 37.9014 153.862 37.2998C153.657 36.6982 153.554 36.0192 153.554 35.2627V34.791C153.554 34.0299 153.657 33.3509 153.862 32.7539C154.067 32.1523 154.356 31.6396 154.73 31.2158C155.108 30.792 155.555 30.4684 156.07 30.2451C156.59 30.0218 157.162 29.9102 157.786 29.9102C158.415 29.9102 158.987 30.0218 159.502 30.2451C160.021 30.4684 160.468 30.792 160.842 31.2158C161.22 31.6396 161.511 32.1523 161.717 32.7539C161.926 33.3509 162.031 34.0299 162.031 34.791ZM159.96 35.2627V34.7773C159.96 34.2487 159.912 33.7839 159.816 33.3828C159.72 32.9818 159.579 32.6445 159.392 32.3711C159.205 32.0977 158.978 31.8926 158.709 31.7559C158.44 31.6146 158.132 31.5439 157.786 31.5439C157.44 31.5439 157.132 31.6146 156.863 31.7559C156.599 31.8926 156.373 32.0977 156.186 32.3711C156.004 32.6445 155.865 32.9818 155.769 33.3828C155.674 33.7839 155.626 34.2487 155.626 34.7773V35.2627C155.626 35.7868 155.674 36.2516 155.769 36.6572C155.865 37.0583 156.006 37.3978 156.193 37.6758C156.38 37.9492 156.608 38.1566 156.877 38.2979C157.146 38.4391 157.453 38.5098 157.8 38.5098C158.146 38.5098 158.454 38.4391 158.722 38.2979C158.991 38.1566 159.217 37.9492 159.399 37.6758C159.581 37.3978 159.72 37.0583 159.816 36.6572C159.912 36.2516 159.96 35.7868 159.96 35.2627ZM172.028 30.0469V40H169.977L165.978 33.3281V40H163.928V30.0469H165.978L169.984 36.7256V30.0469H172.028ZM180.911 38.4004V40H175.613V38.4004H180.911ZM176.283 30.0469V40H174.232V30.0469H176.283ZM180.221 34.1006V35.6592H175.613V34.1006H180.221ZM180.904 30.0469V31.6533H175.613V30.0469H180.904ZM187.709 37.3955C187.709 37.2178 187.682 37.0583 187.627 36.917C187.577 36.7712 187.481 36.639 187.34 36.5205C187.199 36.3975 187 36.2767 186.745 36.1582C186.49 36.0397 186.159 35.9167 185.754 35.7891C185.303 35.6432 184.874 35.4792 184.469 35.2969C184.068 35.1146 183.712 34.9027 183.402 34.6611C183.097 34.415 182.855 34.1302 182.678 33.8066C182.505 33.4831 182.418 33.1071 182.418 32.6787C182.418 32.264 182.509 31.888 182.691 31.5508C182.874 31.209 183.129 30.9173 183.457 30.6758C183.785 30.4297 184.172 30.2406 184.619 30.1084C185.07 29.9762 185.565 29.9102 186.103 29.9102C186.836 29.9102 187.477 30.0423 188.023 30.3066C188.57 30.571 188.994 30.9333 189.295 31.3936C189.6 31.8538 189.753 32.3802 189.753 32.9727H187.716C187.716 32.681 187.654 32.4258 187.531 32.207C187.413 31.9837 187.23 31.8083 186.984 31.6807C186.743 31.5531 186.437 31.4893 186.068 31.4893C185.713 31.4893 185.417 31.5439 185.18 31.6533C184.943 31.7581 184.765 31.9017 184.646 32.084C184.528 32.2617 184.469 32.4622 184.469 32.6855C184.469 32.8542 184.51 33.0068 184.592 33.1436C184.678 33.2803 184.806 33.4079 184.975 33.5264C185.143 33.6449 185.351 33.7565 185.597 33.8613C185.843 33.9661 186.128 34.0687 186.451 34.1689C186.993 34.333 187.47 34.5176 187.88 34.7227C188.295 34.9277 188.641 35.1579 188.919 35.4131C189.197 35.6683 189.407 35.9577 189.548 36.2812C189.689 36.6048 189.76 36.9717 189.76 37.3818C189.76 37.8148 189.675 38.2021 189.507 38.5439C189.338 38.8857 189.094 39.1751 188.775 39.4121C188.456 39.6491 188.076 39.8291 187.634 39.9521C187.192 40.0752 186.697 40.1367 186.15 40.1367C185.658 40.1367 185.173 40.0729 184.694 39.9453C184.216 39.8132 183.781 39.6149 183.389 39.3506C183.001 39.0863 182.691 38.749 182.459 38.3389C182.227 37.9287 182.11 37.4434 182.11 36.8828H184.168C184.168 37.1927 184.216 37.4548 184.311 37.6689C184.407 37.8831 184.542 38.0563 184.715 38.1885C184.893 38.3206 185.102 38.4163 185.344 38.4756C185.59 38.5348 185.859 38.5645 186.15 38.5645C186.506 38.5645 186.797 38.5143 187.025 38.4141C187.258 38.3138 187.429 38.1748 187.538 37.9971C187.652 37.8193 187.709 37.6188 187.709 37.3955ZM198.536 40H196.369L196.383 38.4004H198.536C199.074 38.4004 199.527 38.2796 199.897 38.0381C200.266 37.792 200.544 37.4342 200.731 36.9648C200.922 36.4954 201.018 35.9281 201.018 35.2627V34.7773C201.018 34.2669 200.963 33.818 200.854 33.4307C200.749 33.0433 200.592 32.7174 200.382 32.4531C200.172 32.1888 199.915 31.9906 199.609 31.8584C199.304 31.7217 198.953 31.6533 198.557 31.6533H196.328V30.0469H198.557C199.222 30.0469 199.831 30.1608 200.382 30.3887C200.938 30.612 201.419 30.9333 201.824 31.3525C202.23 31.7718 202.542 32.2731 202.761 32.8564C202.984 33.4352 203.096 34.0801 203.096 34.791V35.2627C203.096 35.9691 202.984 36.6139 202.761 37.1973C202.542 37.7806 202.23 38.2819 201.824 38.7012C201.423 39.1159 200.943 39.4372 200.382 39.665C199.826 39.8883 199.211 40 198.536 40ZM197.531 30.0469V40H195.481V30.0469H197.531ZM211.685 38.4004V40H206.387V38.4004H211.685ZM207.057 30.0469V40H205.006V30.0469H207.057ZM210.994 34.1006V35.6592H206.387V34.1006H210.994ZM211.678 30.0469V31.6533H206.387V30.0469H211.678ZM220.263 40H218.096L218.11 38.4004H220.263C220.801 38.4004 221.254 38.2796 221.623 38.0381C221.993 37.792 222.271 37.4342 222.457 36.9648C222.649 36.4954 222.744 35.9281 222.744 35.2627V34.7773C222.744 34.2669 222.69 33.818 222.58 33.4307C222.476 33.0433 222.318 32.7174 222.109 32.4531C221.899 32.1888 221.642 31.9906 221.336 31.8584C221.031 31.7217 220.68 31.6533 220.284 31.6533H218.055V30.0469H220.284C220.949 30.0469 221.557 30.1608 222.109 30.3887C222.665 30.612 223.146 30.9333 223.551 31.3525C223.957 31.7718 224.269 32.2731 224.488 32.8564C224.711 33.4352 224.823 34.0801 224.823 34.791V35.2627C224.823 35.9691 224.711 36.6139 224.488 37.1973C224.269 37.7806 223.957 38.2819 223.551 38.7012C223.15 39.1159 222.669 39.4372 222.109 39.665C221.553 39.8883 220.938 40 220.263 40ZM219.258 30.0469V40H217.207V30.0469H219.258ZM228.914 30.0469V40H226.87V30.0469H228.914ZM236.436 37.3955C236.436 37.2178 236.409 37.0583 236.354 36.917C236.304 36.7712 236.208 36.639 236.067 36.5205C235.926 36.3975 235.727 36.2767 235.472 36.1582C235.217 36.0397 234.887 35.9167 234.481 35.7891C234.03 35.6432 233.601 35.4792 233.196 35.2969C232.795 35.1146 232.439 34.9027 232.129 34.6611C231.824 34.415 231.583 34.1302 231.405 33.8066C231.232 33.4831 231.145 33.1071 231.145 32.6787C231.145 32.264 231.236 31.888 231.418 31.5508C231.601 31.209 231.856 30.9173 232.184 30.6758C232.512 30.4297 232.9 30.2406 233.346 30.1084C233.797 29.9762 234.292 29.9102 234.83 29.9102C235.563 29.9102 236.204 30.0423 236.751 30.3066C237.297 30.571 237.721 30.9333 238.022 31.3936C238.327 31.8538 238.48 32.3802 238.48 32.9727H236.443C236.443 32.681 236.381 32.4258 236.258 32.207C236.14 31.9837 235.958 31.8083 235.711 31.6807C235.47 31.5531 235.165 31.4893 234.795 31.4893C234.44 31.4893 234.144 31.5439 233.907 31.6533C233.67 31.7581 233.492 31.9017 233.374 32.084C233.255 32.2617 233.196 32.4622 233.196 32.6855C233.196 32.8542 233.237 33.0068 233.319 33.1436C233.405 33.2803 233.533 33.4079 233.702 33.5264C233.87 33.6449 234.078 33.7565 234.324 33.8613C234.57 33.9661 234.855 34.0687 235.178 34.1689C235.721 34.333 236.197 34.5176 236.607 34.7227C237.022 34.9277 237.368 35.1579 237.646 35.4131C237.924 35.6683 238.134 35.9577 238.275 36.2812C238.416 36.6048 238.487 36.9717 238.487 37.3818C238.487 37.8148 238.403 38.2021 238.234 38.5439C238.065 38.8857 237.821 39.1751 237.502 39.4121C237.183 39.6491 236.803 39.8291 236.361 39.9521C235.919 40.0752 235.424 40.1367 234.877 40.1367C234.385 40.1367 233.9 40.0729 233.421 39.9453C232.943 39.8132 232.508 39.6149 232.116 39.3506C231.728 39.0863 231.418 38.749 231.186 38.3389C230.954 37.9287 230.837 37.4434 230.837 36.8828H232.895C232.895 37.1927 232.943 37.4548 233.039 37.6689C233.134 37.8831 233.269 38.0563 233.442 38.1885C233.62 38.3206 233.829 38.4163 234.071 38.4756C234.317 38.5348 234.586 38.5645 234.877 38.5645C235.233 38.5645 235.525 38.5143 235.752 38.4141C235.985 38.3138 236.156 38.1748 236.265 37.9971C236.379 37.8193 236.436 37.6188 236.436 37.3955ZM246.98 38.4004V40H241.682V38.4004H246.98ZM242.352 30.0469V40H240.301V30.0469H242.352ZM246.29 34.1006V35.6592H241.682V34.1006H246.29ZM246.973 30.0469V31.6533H241.682V30.0469H246.973ZM256.697 30.0469V40H254.646L250.647 33.3281V40H248.596V30.0469H250.647L254.653 36.7256V30.0469H256.697ZM254.106 27.415L255.241 27.4902C255.241 27.8229 255.175 28.126 255.043 28.3994C254.911 28.6683 254.728 28.8848 254.496 29.0488C254.263 29.2083 253.997 29.2881 253.696 29.2881C253.477 29.2881 253.288 29.2585 253.129 29.1992C252.974 29.14 252.83 29.0716 252.698 28.9941C252.566 28.9121 252.429 28.8415 252.288 28.7822C252.151 28.723 251.994 28.6934 251.816 28.6934C251.657 28.6934 251.52 28.7503 251.406 28.8643C251.297 28.9782 251.242 29.1423 251.242 29.3564L250.1 29.2949C250.1 28.9668 250.166 28.666 250.299 28.3926C250.431 28.1191 250.613 27.9004 250.845 27.7363C251.078 27.5677 251.342 27.4834 251.638 27.4834C251.825 27.4834 251.996 27.5153 252.151 27.5791C252.306 27.6383 252.454 27.7067 252.595 27.7842C252.741 27.8617 252.889 27.93 253.04 27.9893C253.19 28.0485 253.35 28.0781 253.518 28.0781C253.678 28.0781 253.814 28.0212 253.928 27.9072C254.047 27.7887 254.106 27.6247 254.106 27.415ZM267.077 34.791V35.2627C267.077 36.0192 266.974 36.6982 266.769 37.2998C266.564 37.9014 266.275 38.4141 265.901 38.8379C265.527 39.2572 265.081 39.5785 264.561 39.8018C264.046 40.0251 263.474 40.1367 262.845 40.1367C262.221 40.1367 261.649 40.0251 261.13 39.8018C260.615 39.5785 260.168 39.2572 259.79 38.8379C259.412 38.4141 259.118 37.9014 258.908 37.2998C258.703 36.6982 258.6 36.0192 258.6 35.2627V34.791C258.6 34.0299 258.703 33.3509 258.908 32.7539C259.113 32.1523 259.402 31.6396 259.776 31.2158C260.154 30.792 260.601 30.4684 261.116 30.2451C261.635 30.0218 262.207 29.9102 262.832 29.9102C263.461 29.9102 264.033 30.0218 264.548 30.2451C265.067 30.4684 265.514 30.792 265.887 31.2158C266.266 31.6396 266.557 32.1523 266.762 32.7539C266.972 33.3509 267.077 34.0299 267.077 34.791ZM265.006 35.2627V34.7773C265.006 34.2487 264.958 33.7839 264.862 33.3828C264.766 32.9818 264.625 32.6445 264.438 32.3711C264.251 32.0977 264.024 31.8926 263.755 31.7559C263.486 31.6146 263.178 31.5439 262.832 31.5439C262.485 31.5439 262.178 31.6146 261.909 31.7559C261.645 31.8926 261.419 32.0977 261.232 32.3711C261.05 32.6445 260.911 32.9818 260.815 33.3828C260.719 33.7839 260.672 34.2487 260.672 34.7773V35.2627C260.672 35.7868 260.719 36.2516 260.815 36.6572C260.911 37.0583 261.052 37.3978 261.239 37.6758C261.426 37.9492 261.654 38.1566 261.923 38.2979C262.191 38.4391 262.499 38.5098 262.845 38.5098C263.192 38.5098 263.499 38.4391 263.768 38.2979C264.037 38.1566 264.263 37.9492 264.445 37.6758C264.627 37.3978 264.766 37.0583 264.862 36.6572C264.958 36.2516 265.006 35.7868 265.006 35.2627Z" fill="white"/>
</svg>
