<svg width="370" height="70" viewBox="0 0 370 70" fill="none" xmlns="http://www.w3.org/2000/svg">
<rect width="370" height="70" fill="#2F303A" fill-opacity="0.8"/>
<path d="M107.798 37.9492H104.202L103.519 40H101.338L105.043 30.0469H106.944L110.669 40H108.489L107.798 37.9492ZM104.756 36.2881H107.244L105.993 32.5625L104.756 36.2881ZM114.07 36.4932V40H112.019V30.0469H115.902C116.649 30.0469 117.305 30.1836 117.87 30.457C118.44 30.7305 118.878 31.1201 119.183 31.626C119.488 32.1273 119.641 32.6992 119.641 33.3418C119.641 34.3171 119.306 35.0872 118.636 35.6523C117.971 36.2129 117.048 36.4932 115.868 36.4932H114.07ZM114.07 34.832H115.902C116.444 34.832 116.856 34.7044 117.139 34.4492C117.426 34.194 117.57 33.8294 117.57 33.3555C117.57 32.8678 117.426 32.4736 117.139 32.1729C116.852 31.8721 116.455 31.7171 115.95 31.708H114.07V34.832ZM123.527 38.3525H127.881V40H121.476V30.0469H123.527V38.3525ZM131.665 40H129.614V30.0469H131.665V40ZM141.805 36.6846C141.728 37.7555 141.331 38.5986 140.616 39.2139C139.905 39.8291 138.966 40.1367 137.799 40.1367C136.523 40.1367 135.518 39.7083 134.785 38.8516C134.056 37.9902 133.691 36.8099 133.691 35.3105V34.7021C133.691 33.7451 133.86 32.902 134.197 32.1729C134.534 31.4437 135.015 30.8854 135.639 30.498C136.268 30.1061 136.997 29.9102 137.827 29.9102C138.975 29.9102 139.9 30.2178 140.602 30.833C141.304 31.4482 141.71 32.3118 141.819 33.4238H139.768C139.718 32.7812 139.538 32.3164 139.228 32.0293C138.923 31.7376 138.456 31.5918 137.827 31.5918C137.143 31.5918 136.63 31.8379 136.289 32.3301C135.951 32.8177 135.778 33.5765 135.769 34.6064V35.3584C135.769 36.4339 135.931 37.2201 136.254 37.7168C136.583 38.2135 137.098 38.4619 137.799 38.4619C138.433 38.4619 138.905 38.3184 139.214 38.0312C139.529 37.7396 139.709 37.2907 139.754 36.6846H141.805ZM149.191 37.9492H145.595L144.912 40H142.731L146.436 30.0469H148.337L152.062 40H149.881L149.191 37.9492ZM146.149 36.2881H148.637L147.386 32.5625L146.149 36.2881ZM161.075 36.6846C160.997 37.7555 160.601 38.5986 159.885 39.2139C159.175 39.8291 158.236 40.1367 157.069 40.1367C155.793 40.1367 154.788 39.7083 154.054 38.8516C153.325 37.9902 152.961 36.8099 152.961 35.3105V34.7021C152.961 33.7451 153.129 32.902 153.467 32.1729C153.804 31.4437 154.285 30.8854 154.909 30.498C155.538 30.1061 156.267 29.9102 157.096 29.9102C158.245 29.9102 159.17 30.2178 159.872 30.833C160.574 31.4482 160.979 32.3118 161.089 33.4238H159.038C158.988 32.7812 158.808 32.3164 158.498 32.0293C158.192 31.7376 157.725 31.5918 157.096 31.5918C156.413 31.5918 155.9 31.8379 155.558 32.3301C155.221 32.8177 155.048 33.5765 155.039 34.6064V35.3584C155.039 36.4339 155.201 37.2201 155.524 37.7168C155.852 38.2135 156.367 38.4619 157.069 38.4619C157.703 38.4619 158.174 38.3184 158.484 38.0312C158.799 37.7396 158.979 37.2907 159.024 36.6846H161.075ZM165.022 40H162.971V30.0469H165.022V40ZM175.525 35.249C175.525 36.2288 175.352 37.0879 175.006 37.8262C174.659 38.5645 174.163 39.1341 173.516 39.5352C172.873 39.9362 172.135 40.1367 171.301 40.1367C170.476 40.1367 169.74 39.9385 169.093 39.542C168.446 39.1455 167.944 38.5804 167.589 37.8467C167.233 37.1084 167.053 36.2607 167.049 35.3037V34.8115C167.049 33.8317 167.224 32.9704 167.575 32.2275C167.931 31.4801 168.43 30.9082 169.072 30.5117C169.719 30.1107 170.458 29.9102 171.287 29.9102C172.116 29.9102 172.852 30.1107 173.495 30.5117C174.142 30.9082 174.641 31.4801 174.992 32.2275C175.348 32.9704 175.525 33.8294 175.525 34.8047V35.249ZM173.447 34.7979C173.447 33.7542 173.26 32.9613 172.887 32.4189C172.513 31.8766 171.98 31.6055 171.287 31.6055C170.599 31.6055 170.068 31.8743 169.694 32.4121C169.321 32.9453 169.131 33.7292 169.127 34.7637V35.249C169.127 36.2653 169.314 37.0537 169.687 37.6143C170.061 38.1748 170.599 38.4551 171.301 38.4551C171.989 38.4551 172.517 38.1862 172.887 37.6484C173.256 37.1061 173.443 36.3177 173.447 35.2832V34.7979ZM185.529 40H183.478L179.486 33.4512V40H177.436V30.0469H179.486L183.485 36.6094V30.0469H185.529V40ZM193.729 35.6865H189.791V38.3525H194.412V40H187.74V30.0469H194.398V31.708H189.791V34.0801H193.729V35.6865ZM201.196 37.3887C201.196 37.0013 201.06 36.7051 200.786 36.5C200.513 36.2904 200.021 36.0716 199.31 35.8438C198.599 35.6113 198.036 35.3835 197.621 35.1602C196.491 34.5495 195.926 33.7269 195.926 32.6924C195.926 32.1546 196.076 31.6761 196.377 31.2568C196.682 30.833 197.118 30.5026 197.683 30.2656C198.252 30.0286 198.89 29.9102 199.597 29.9102C200.308 29.9102 200.941 30.04 201.497 30.2998C202.053 30.555 202.484 30.9173 202.789 31.3867C203.099 31.8561 203.254 32.3893 203.254 32.9863H201.203C201.203 32.5306 201.06 32.1774 200.773 31.9268C200.485 31.6715 200.082 31.5439 199.563 31.5439C199.061 31.5439 198.672 31.651 198.394 31.8652C198.116 32.0749 197.977 32.3529 197.977 32.6992C197.977 33.0228 198.138 33.2939 198.462 33.5127C198.79 33.7314 199.271 33.9365 199.904 34.1279C201.071 34.4788 201.921 34.9141 202.454 35.4336C202.987 35.9531 203.254 36.6003 203.254 37.375C203.254 38.2363 202.928 38.9131 202.276 39.4053C201.625 39.8929 200.748 40.1367 199.645 40.1367C198.879 40.1367 198.182 39.9977 197.553 39.7197C196.924 39.4372 196.443 39.0521 196.11 38.5645C195.782 38.0768 195.618 37.5117 195.618 36.8691H197.676C197.676 37.9674 198.332 38.5166 199.645 38.5166C200.132 38.5166 200.513 38.4186 200.786 38.2227C201.06 38.0221 201.196 37.7441 201.196 37.3887ZM211.655 30.0469L214.211 37.2656L216.754 30.0469H219.448V40H217.39V37.2793L217.595 32.583L214.908 40H213.5L210.821 32.5898L211.026 37.2793V40H208.975V30.0469H211.655ZM229.834 35.249C229.834 36.2288 229.661 37.0879 229.315 37.8262C228.968 38.5645 228.472 39.1341 227.825 39.5352C227.182 39.9362 226.444 40.1367 225.61 40.1367C224.785 40.1367 224.049 39.9385 223.402 39.542C222.755 39.1455 222.253 38.5804 221.898 37.8467C221.542 37.1084 221.362 36.2607 221.358 35.3037V34.8115C221.358 33.8317 221.533 32.9704 221.884 32.2275C222.24 31.4801 222.739 30.9082 223.381 30.5117C224.028 30.1107 224.767 29.9102 225.596 29.9102C226.425 29.9102 227.161 30.1107 227.804 30.5117C228.451 30.9082 228.95 31.4801 229.301 32.2275C229.657 32.9704 229.834 33.8294 229.834 34.8047V35.249ZM227.756 34.7979C227.756 33.7542 227.569 32.9613 227.196 32.4189C226.822 31.8766 226.289 31.6055 225.596 31.6055C224.908 31.6055 224.377 31.8743 224.003 32.4121C223.63 32.9453 223.44 33.7292 223.436 34.7637V35.249C223.436 36.2653 223.623 37.0537 223.996 37.6143C224.37 38.1748 224.908 38.4551 225.61 38.4551C226.298 38.4551 226.827 38.1862 227.196 37.6484C227.565 37.1061 227.752 36.3177 227.756 35.2832V34.7979ZM225.993 27.3809H228.146L226.252 29.5H224.646L225.993 27.3809ZM235.272 37.5322L237.528 30.0469H239.811L236.345 40H234.206L230.753 30.0469H233.03L235.272 37.5322ZM243.355 40H241.304V30.0469H243.355V40ZM247.733 38.3525H252.087V40H245.682V30.0469H247.733V38.3525ZM259.678 35.6865H255.741V38.3525H260.362V40H253.69V30.0469H260.348V31.708H255.741V34.0801H259.678V35.6865ZM267.146 37.3887C267.146 37.0013 267.01 36.7051 266.736 36.5C266.463 36.2904 265.97 36.0716 265.26 35.8438C264.549 35.6113 263.986 35.3835 263.571 35.1602C262.441 34.5495 261.876 33.7269 261.876 32.6924C261.876 32.1546 262.026 31.6761 262.327 31.2568C262.632 30.833 263.067 30.5026 263.633 30.2656C264.202 30.0286 264.84 29.9102 265.547 29.9102C266.258 29.9102 266.891 30.04 267.447 30.2998C268.003 30.555 268.434 30.9173 268.739 31.3867C269.049 31.8561 269.204 32.3893 269.204 32.9863H267.153C267.153 32.5306 267.01 32.1774 266.722 31.9268C266.435 31.6715 266.032 31.5439 265.512 31.5439C265.011 31.5439 264.622 31.651 264.344 31.8652C264.066 32.0749 263.927 32.3529 263.927 32.6992C263.927 33.0228 264.088 33.2939 264.412 33.5127C264.74 33.7314 265.221 33.9365 265.854 34.1279C267.021 34.4788 267.871 34.9141 268.404 35.4336C268.937 35.9531 269.204 36.6003 269.204 37.375C269.204 38.2363 268.878 38.9131 268.226 39.4053C267.575 39.8929 266.697 40.1367 265.594 40.1367C264.829 40.1367 264.132 39.9977 263.503 39.7197C262.874 39.4372 262.393 39.0521 262.06 38.5645C261.732 38.0768 261.568 37.5117 261.568 36.8691H263.626C263.626 37.9674 264.282 38.5166 265.594 38.5166C266.082 38.5166 266.463 38.4186 266.736 38.2227C267.01 38.0221 267.146 37.7441 267.146 37.3887Z" fill="white"/>
</svg>
