<svg width="206" height="80" viewBox="0 0 206 80" fill="none" xmlns="http://www.w3.org/2000/svg">
<path d="M6.87695 8.68652H2.93945V11.3525H7.56055V13H0.888672V3.04688H7.54688V4.70801H2.93945V7.08008H6.87695V8.68652ZM17.2774 13H15.2266L11.2345 6.45117V13H9.18367V3.04688H11.2345L15.2335 9.60938V3.04688H17.2774V13ZM27.3019 9.68457C27.2244 10.7555 26.828 11.5986 26.1125 12.2139C25.4015 12.8291 24.4627 13.1367 23.2961 13.1367C22.02 13.1367 21.0151 12.7083 20.2814 11.8516C19.5522 10.9902 19.1877 9.8099 19.1877 8.31055V7.70215C19.1877 6.74512 19.3563 5.90202 19.6935 5.17285C20.0308 4.44368 20.5115 3.88542 21.1359 3.49805C21.7648 3.10612 22.494 2.91016 23.3234 2.91016C24.4718 2.91016 25.397 3.21777 26.0988 3.83301C26.8006 4.44824 27.2062 5.31185 27.3156 6.42383H25.2648C25.2147 5.78125 25.0347 5.31641 24.7248 5.0293C24.4194 4.73763 23.9523 4.5918 23.3234 4.5918C22.6398 4.5918 22.1271 4.83789 21.7853 5.33008C21.4481 5.81771 21.2749 6.5765 21.2658 7.60645V8.3584C21.2658 9.43392 21.4276 10.2201 21.7511 10.7168C22.0793 11.2135 22.5942 11.4619 23.2961 11.4619C23.9295 11.4619 24.4012 11.3184 24.7111 11.0312C25.0255 10.7396 25.2056 10.2907 25.2511 9.68457H27.3019ZM36.6018 3.04688V9.60254C36.6018 10.6917 36.26 11.5531 35.5764 12.1865C34.8974 12.82 33.9677 13.1367 32.7873 13.1367C31.6252 13.1367 30.7024 12.8291 30.0188 12.2139C29.3352 11.5986 28.9866 10.7533 28.9729 9.67773V3.04688H31.0237V9.61621C31.0237 10.2679 31.1786 10.7441 31.4885 11.0449C31.803 11.3411 32.2359 11.4893 32.7873 11.4893C33.9403 11.4893 34.526 10.8831 34.5442 9.6709V3.04688H36.6018ZM44.6917 8.68652H40.7542V11.3525H45.3753V13H38.7034V3.04688H45.3616V4.70801H40.7542V7.08008H44.6917V8.68652ZM55.0922 13H53.0414L49.0492 6.45117V13H46.9984V3.04688H49.0492L53.0482 9.60938V3.04688H55.0922V13ZM64.5903 4.70801H61.5415V13H59.4907V4.70801H56.4829V3.04688H64.5903V4.70801ZM69.8707 9.35645H68.2369V13H66.1861V3.04688H69.8843C71.0601 3.04688 71.967 3.30892 72.605 3.83301C73.2431 4.3571 73.5621 5.09766 73.5621 6.05469C73.5621 6.73372 73.414 7.30111 73.1177 7.75684C72.8261 8.20801 72.3817 8.56803 71.7847 8.83691L73.938 12.9043V13H71.7369L69.8707 9.35645ZM68.2369 7.69531H69.8912C70.4061 7.69531 70.8049 7.56543 71.0875 7.30566C71.37 7.04134 71.5113 6.67904 71.5113 6.21875C71.5113 5.74935 71.3769 5.38021 71.108 5.11133C70.8436 4.84245 70.4358 4.70801 69.8843 4.70801H68.2369V7.69531ZM81.5358 8.68652H77.5983V11.3525H82.2194V13H75.5475V3.04688H82.2057V4.70801H77.5983V7.08008H81.5358V8.68652ZM91.9362 13H89.8855L85.8933 6.45117V13H83.8425V3.04688H85.8933L89.8923 9.60938V3.04688H91.9362V13ZM102.323 8.24902C102.323 9.22884 102.15 10.0879 101.804 10.8262C101.457 11.5645 100.96 12.1341 100.313 12.5352C99.6707 12.9362 98.9324 13.1367 98.0984 13.1367C97.2736 13.1367 96.5376 12.9385 95.8904 12.542C95.2433 12.1455 94.742 11.5804 94.3865 10.8467C94.0311 10.1084 93.851 9.26074 93.8465 8.30371V7.81152C93.8465 6.83171 94.0219 5.97038 94.3728 5.22754C94.7283 4.48014 95.2273 3.9082 95.8699 3.51172C96.5171 3.11068 97.2553 2.91016 98.0848 2.91016C98.9142 2.91016 99.6502 3.11068 100.293 3.51172C100.94 3.9082 101.439 4.48014 101.79 5.22754C102.145 5.97038 102.323 6.82943 102.323 7.80469V8.24902ZM100.245 7.79785C100.245 6.75423 100.058 5.96126 99.6844 5.41895C99.3107 4.87663 98.7775 4.60547 98.0848 4.60547C97.3966 4.60547 96.8657 4.87435 96.492 5.41211C96.1183 5.94531 95.9292 6.72917 95.9246 7.76367V8.24902C95.9246 9.2653 96.1115 10.0537 96.4852 10.6143C96.8589 11.1748 97.3966 11.4551 98.0984 11.4551C98.7866 11.4551 99.3152 11.1862 99.6844 10.6484C100.054 10.1061 100.24 9.31771 100.245 8.2832V7.79785ZM109.394 10.3887C109.394 10.0013 109.258 9.70508 108.984 9.5C108.711 9.29036 108.219 9.07161 107.508 8.84375C106.797 8.61133 106.234 8.38346 105.819 8.16016C104.689 7.54948 104.124 6.72689 104.124 5.69238C104.124 5.15462 104.274 4.67611 104.575 4.25684C104.88 3.83301 105.316 3.5026 105.881 3.26562C106.45 3.02865 107.088 2.91016 107.795 2.91016C108.506 2.91016 109.139 3.04004 109.695 3.2998C110.251 3.55501 110.682 3.91732 110.987 4.38672C111.297 4.85612 111.452 5.38932 111.452 5.98633H109.401C109.401 5.5306 109.258 5.17741 108.971 4.92676C108.683 4.67155 108.28 4.54395 107.761 4.54395C107.259 4.54395 106.87 4.65104 106.592 4.86523C106.314 5.07487 106.175 5.35286 106.175 5.69922C106.175 6.02279 106.336 6.29395 106.66 6.5127C106.988 6.73145 107.469 6.93652 108.102 7.12793C109.269 7.47884 110.119 7.91406 110.652 8.43359C111.185 8.95312 111.452 9.60026 111.452 10.375C111.452 11.2363 111.126 11.9131 110.474 12.4053C109.823 12.8929 108.946 13.1367 107.843 13.1367C107.077 13.1367 106.38 12.9977 105.751 12.7197C105.122 12.4372 104.641 12.0521 104.308 11.5645C103.98 11.0768 103.816 10.5117 103.816 9.86914H105.874C105.874 10.9674 106.53 11.5166 107.843 11.5166C108.33 11.5166 108.711 11.4186 108.984 11.2227C109.258 11.0221 109.394 10.7441 109.394 10.3887ZM123.161 8.68652H119.224V11.3525H123.845V13H117.173V3.04688H123.831V4.70801H119.224V7.08008H123.161V8.68652ZM133.562 13H131.511L127.519 6.45117V13H125.468V3.04688H127.519L131.518 9.60938V3.04688H133.562V13Z" fill="white"/>
<path d="M206 58C206 64.0751 203.538 69.5751 199.556 73.5564C195.575 77.5376 190.075 80 184 80C177.925 80 172.425 77.5376 168.444 73.5564C164.462 69.5751 162 64.0751 162 58C162 51.9249 164.462 46.4249 168.444 42.4437C172.425 38.4624 177.925 36 184 36C190.075 36 195.575 38.4624 199.556 42.4437C203.538 46.4249 206 51.9249 206 58Z" fill="white" fill-opacity="0.1"/>
<g clip-path="url(#clip0_75273_775)">
<path d="M193.995 68.0001V67.9993H194V60.6643C194 57.0759 193.228 54.3118 189.032 54.3118C187.016 54.3118 185.662 55.4184 185.11 56.4676H185.052V54.6468H181.074V67.9993H185.216V61.3876C185.216 59.6468 185.546 57.9634 187.702 57.9634C189.826 57.9634 189.857 59.9501 189.857 61.4993V68.0001H193.995Z" fill="white"/>
<path d="M174.33 54.6475H178.477V68H174.33V54.6475Z" fill="white"/>
<path d="M176.402 48C175.076 48 174 49.0758 174 50.4017C174 51.7275 175.076 52.8258 176.402 52.8258C177.727 52.8258 178.803 51.7275 178.803 50.4017C178.802 49.0758 177.727 48 176.402 48V48Z" fill="white"/>
</g>
<path d="M152 58C152 64.0751 149.538 69.5751 145.556 73.5564C141.575 77.5376 136.075 80 130 80C123.925 80 118.425 77.5376 114.444 73.5564C110.462 69.5751 108 64.0751 108 58C108 51.9249 110.462 46.4249 114.444 42.4437C118.425 38.4624 123.925 36 130 36C136.075 36 141.575 38.4624 145.556 42.4437C149.538 46.4249 152 51.9249 152 58Z" fill="white" fill-opacity="0.1"/>
<g clip-path="url(#clip1_75273_775)">
<path d="M133.331 51.3208H135.157V48.1408C134.842 48.0975 133.758 48 132.497 48C129.864 48 128.061 49.6558 128.061 52.6992V55.5H125.156V59.055H128.061V68H131.623V59.0558H134.41L134.853 55.5008H131.622V53.0517C131.623 52.0242 131.899 51.3208 133.331 51.3208Z" fill="white"/>
</g>
<path d="M98 58C98 64.0751 95.5376 69.5751 91.5564 73.5564C87.5751 77.5376 82.0751 80 76 80C69.9249 80 64.4249 77.5376 60.4437 73.5564C56.4624 69.5751 54 64.0751 54 58C54 51.9249 56.4624 46.4249 60.4437 42.4437C64.4249 38.4624 69.9249 36 76 36C82.0751 36 87.5751 38.4624 91.5564 42.4437C95.5376 46.4249 98 51.9249 98 58Z" fill="#2196F3"/>
<g clip-path="url(#clip2_75273_775)">
<path d="M86 51.7988C85.2563 52.125 84.4637 52.3412 83.6375 52.4462C84.4875 51.9388 85.1363 51.1412 85.4412 50.18C84.6488 50.6525 83.7738 50.9863 82.8412 51.1725C82.0887 50.3713 81.0162 49.875 79.8462 49.875C77.5763 49.875 75.7487 51.7175 75.7487 53.9763C75.7487 54.3012 75.7762 54.6137 75.8438 54.9112C72.435 54.745 69.4188 53.1113 67.3925 50.6225C67.0387 51.2363 66.8313 51.9388 66.8313 52.695C66.8313 54.115 67.5625 55.3737 68.6525 56.1025C67.9937 56.09 67.3475 55.8988 66.8 55.5975C66.8 55.61 66.8 55.6262 66.8 55.6425C66.8 57.635 68.2212 59.29 70.085 59.6712C69.7512 59.7625 69.3875 59.8062 69.01 59.8062C68.7475 59.8062 68.4825 59.7913 68.2337 59.7362C68.765 61.36 70.2725 62.5538 72.065 62.5925C70.67 63.6838 68.8988 64.3412 66.9813 64.3412C66.645 64.3412 66.3225 64.3263 66 64.285C67.8162 65.4563 69.9688 66.125 72.29 66.125C79.835 66.125 83.96 59.875 83.96 54.4575C83.96 54.2762 83.9538 54.1013 83.945 53.9275C84.7588 53.35 85.4425 52.6288 86 51.7988Z" fill="white"/>
</g>
<path d="M44 58C44 64.0751 41.5376 69.5751 37.5564 73.5564C33.5751 77.5376 28.0751 80 22 80C15.9249 80 10.4249 77.5376 6.44365 73.5564C2.46243 69.5751 0 64.0751 0 58C0 51.9249 2.46243 46.4249 6.44365 42.4437C10.4249 38.4624 15.9249 36 22 36C28.0751 36 33.5751 38.4624 37.5564 42.4437C41.5376 46.4249 44 51.9249 44 58Z" fill="white" fill-opacity="0.1"/>
<g clip-path="url(#clip3_75273_775)">
<path d="M31.9804 53.8801C31.9336 52.8174 31.7617 52.0868 31.5156 51.4537C31.2616 50.7818 30.8709 50.1801 30.359 49.68C29.8589 49.1721 29.2533 48.7774 28.5891 48.5274C27.9524 48.2813 27.2256 48.1094 26.163 48.0626C25.0924 48.0118 24.7525 48 22.0371 48C19.3217 48 18.9818 48.0118 17.9152 48.0586C16.8525 48.1055 16.1219 48.2775 15.489 48.5235C14.8169 48.7774 14.2153 49.1681 13.7152 49.68C13.2073 50.1801 12.8127 50.7857 12.5626 51.4499C12.3164 52.0868 12.1446 52.8134 12.0977 53.8761C12.0469 54.9467 12.0352 55.2866 12.0352 58.002C12.0352 60.7173 12.0469 61.0572 12.0938 62.1239C12.1406 63.1865 12.3126 63.9171 12.5588 64.5502C12.8127 65.2221 13.2073 65.8238 13.7152 66.3239C14.2153 66.8318 14.8209 67.2265 15.4851 67.4765C16.1219 67.7226 16.8486 67.8945 17.9114 67.9413C18.9779 67.9883 19.3179 67.9999 22.0333 67.9999C24.7487 67.9999 25.0885 67.9883 26.1552 67.9413C27.2179 67.8945 27.9484 67.7226 28.5813 67.4765C29.9254 66.9568 30.9881 65.8941 31.5078 64.5502C31.7538 63.9133 31.9258 63.1865 31.9727 62.1239C32.0195 61.0572 32.0313 60.7173 32.0313 58.002C32.0313 55.2866 32.0273 54.9467 31.9804 53.8801ZM30.1794 62.0457C30.1364 63.0225 29.9723 63.5499 29.8356 63.9015C29.4995 64.7728 28.808 65.4643 27.9367 65.8004C27.5851 65.9372 27.0538 66.1012 26.0809 66.1441C25.026 66.1911 24.7096 66.2027 22.0411 66.2027C19.3726 66.2027 19.0522 66.1911 18.0011 66.1441C17.0244 66.1012 16.4969 65.9372 16.1453 65.8004C15.7117 65.6402 15.317 65.3862 14.9967 65.0541C14.6646 64.7298 14.4106 64.3391 14.2504 63.9055C14.1137 63.5539 13.9496 63.0225 13.9067 62.0497C13.8597 60.9948 13.8481 60.6783 13.8481 58.0097C13.8481 55.3412 13.8597 55.0209 13.9067 53.9699C13.9496 52.9932 14.1137 52.4657 14.2504 52.1141C14.4106 51.6804 14.6646 51.2859 15.0007 50.9654C15.3248 50.6333 15.7155 50.3793 16.1493 50.2192C16.5009 50.0825 17.0323 49.9184 18.0051 49.8754C19.06 49.8285 19.3765 49.8168 22.0449 49.8168C24.7174 49.8168 25.0337 49.8285 26.0848 49.8754C27.0616 49.9184 27.589 50.0825 27.9407 50.2192C28.3742 50.3793 28.7689 50.6333 29.0893 50.9654C29.4213 51.2897 29.6753 51.6804 29.8356 52.1141C29.9723 52.4657 30.1364 52.997 30.1794 53.9699C30.2263 55.0248 30.238 55.3412 30.238 58.0097C30.238 60.6783 30.2263 60.9908 30.1794 62.0457Z" fill="white"/>
<path d="M22.0371 52.8641C19.2007 52.8641 16.8994 55.1653 16.8994 58.0019C16.8994 60.8384 19.2007 63.1396 22.0371 63.1396C24.8737 63.1396 27.1749 60.8384 27.1749 58.0019C27.1749 55.1653 24.8737 52.8641 22.0371 52.8641ZM22.0371 61.3346C20.197 61.3346 18.7044 59.8421 18.7044 58.0019C18.7044 56.1616 20.197 54.6691 22.0371 54.6691C23.8774 54.6691 25.3698 56.1616 25.3698 58.0019C25.3698 59.8421 23.8774 61.3346 22.0371 61.3346Z" fill="white"/>
<path d="M28.5775 52.6611C28.5775 53.3235 28.0404 53.8605 27.3779 53.8605C26.7155 53.8605 26.1785 53.3235 26.1785 52.6611C26.1785 51.9986 26.7155 51.4617 27.3779 51.4617C28.0404 51.4617 28.5775 51.9986 28.5775 52.6611Z" fill="white"/>
</g>
<defs>
<clipPath id="clip0_75273_775">
<rect width="20" height="20" fill="white" transform="translate(174 48)"/>
</clipPath>
<clipPath id="clip1_75273_775">
<rect width="20" height="20" fill="white" transform="translate(120 48)"/>
</clipPath>
<clipPath id="clip2_75273_775">
<rect width="20" height="20" fill="white" transform="translate(66 48)"/>
</clipPath>
<clipPath id="clip3_75273_775">
<rect width="20" height="20" fill="white" transform="translate(12 48)"/>
</clipPath>
</defs>
</svg>
